<?xml version="1.0" ?><svg xmlns="http://www.w3.org/2000/svg" id="Layer_1" data-name="Layer 1" viewBox="0 0 3736 661"><defs><style>.cls-4{font-size:38px;font-family:BwModelica-Bold, Bw Modelica;font-weight:700;}.cls-10,.cls-4,.cls-5,.cls-9{fill:#231f20;}.cls-5{font-size:33px;font-family:BwModelica-RegularItalic, Bw Modelica;}.cls-10,.cls-5{font-style:italic;}.cls-6{letter-spacing:-0.03em;}.cls-7{letter-spacing:-0.01em;}.cls-8{letter-spacing:-0.02em;}.cls-9{font-size:30px;font-family:BwModelica-ExtraBold, Bw Modelica;font-weight:800;}.cls-10{font-size:28px;font-family:BwModelica-LightItalic, Bw Modelica;font-weight:300;}</style></defs><g id="_10_courses" data-name="10 courses"><g id="_11" data-name="11"><rect class="cls-1" x="243.4" y="2.85" width="200.75" height="56.96" rx="17"/><path class="cls-2" d="M427.15,5.85a14,14,0,0,1,14,14v23a14,14,0,0,1-14,14H260.4a14,14,0,0,1-14-14v-23a14,14,0,0,1,14-14H427.15m0-6H260.4a20,20,0,0,0-20,20v23a20,20,0,0,0,20,20H427.15a20,20,0,0,0,20-20v-23a20,20,0,0,0-20-20Z"/><rect class="cls-3" x="341" y="322.44" width="308.13" height="8"/><path class="cls-3" d="M649.13,326.83H623.4a32.72,32.72,0,0,1,7.54-21.21,24,24,0,0,1,18.19-8.79Z"/><path class="cls-3" d="M344.43,326.5v-30a24,24,0,0,1,18.19,8.79,32.72,32.72,0,0,1,7.53,21.21Z"/><rect class="cls-3" x="210.66" y="193.3" width="267.54" height="6.86" transform="translate(541.16 -147.7) rotate(90)"/><text id="course_title" data-name="course title" class="cls-4" transform="translate(366.4 109.23)"/><text id="subtitle" class="cls-5" transform="translate(366.6 234.33)"/><text id="course_code" data-name="course code" class="cls-9" transform="translate(268.83 42.79)"/><text id="faculty_name" data-name="faculty name" class="cls-10" transform="translate(340.56 360.67)"/><text id="faculty_name-2" data-name="faculty name" class="cls-10" transform="translate(340.56 396.43)"/></g><g id="_11-2" data-name="11"><rect class="cls-1" x="551.53" y="601.12" width="200.75" height="56.96" rx="17"/><path class="cls-2" d="M735.28,604.12a14,14,0,0,1,14,14v23a14,14,0,0,1-14,14H568.53a14,14,0,0,1-14-14v-23a14,14,0,0,1,14-14H735.28m0-6H568.53a20,20,0,0,0-20,20v23a20,20,0,0,0,20,20H735.28a20,20,0,0,0,20-20v-23a20,20,0,0,0-20-20Z"/><rect class="cls-3" x="649.15" y="330.44" width="308.13" height="8"/><path class="cls-3" d="M957.28,334.44H931.55a32.75,32.75,0,0,0,7.54,21.22,24,24,0,0,0,18.19,8.78Z"/><path class="cls-3" d="M652.56,334.43v30a24,24,0,0,0,18.19-8.79,32.72,32.72,0,0,0,7.53-21.21Z"/><rect class="cls-3" x="518.81" y="460.79" width="267.54" height="6.86" transform="translate(188.36 1116.8) rotate(-90)"/><text id="course_title-2" data-name="course title" class="cls-4" transform="translate(676.53 493.81)"/><text id="subtitle-2" data-name="subtitle" class="cls-5" transform="translate(676.73 444.91)"/><text id="course_code-2" data-name="course code" class="cls-9" transform="translate(576.46 641.37)"/><text id="faculty_name-3" data-name="faculty name" class="cls-10" transform="translate(649.27 323.17)"/><text id="faculty_name-4" data-name="faculty name" class="cls-10" transform="translate(649.27 287.41)"/></g><g id="_11-3" data-name="11"><rect class="cls-1" x="859.73" y="2.87" width="200.75" height="56.96" rx="17"/><path class="cls-2" d="M1043.48,5.87a14,14,0,0,1,14,14v23a14,14,0,0,1-14,14H876.73a14,14,0,0,1-14-14v-23a14,14,0,0,1,14-14h166.75m0-6H876.73a20,20,0,0,0-20,20v23a20,20,0,0,0,20,20h166.75a20,20,0,0,0,20-20v-23a20,20,0,0,0-20-20Z"/><rect class="cls-3" x="957.33" y="322.46" width="308.13" height="8"/><path class="cls-3" d="M1265.46,326.85h-25.72a32.74,32.74,0,0,1,7.53-21.22,24,24,0,0,1,18.19-8.78Z"/><path class="cls-3" d="M960.76,326.52v-30A24,24,0,0,1,979,305.3a32.75,32.75,0,0,1,7.54,21.22Z"/><rect class="cls-3" x="826.99" y="193.32" width="267.54" height="6.86" transform="translate(1157.51 -764.02) rotate(90)"/><text id="course_title-3" data-name="course title" class="cls-4" transform="translate(982.73 109.25)"/><text id="subtitle-3" data-name="subtitle" class="cls-5" transform="translate(982.93 234.35)"/><text id="course_code-3" data-name="course code" class="cls-9" transform="translate(885.17 42.81)"/><text id="faculty_name-5" data-name="faculty name" class="cls-10" transform="translate(956.89 360.69)"/><text id="faculty_name-6" data-name="faculty name" class="cls-10" transform="translate(956.89 396.45)"/></g><g id="_11-4" data-name="11"><rect class="cls-1" x="1167.86" y="601.13" width="200.75" height="56.96" rx="17"/><path class="cls-2" d="M1351.61,604.13a14,14,0,0,1,14,14v23a14,14,0,0,1-14,14H1184.86a14,14,0,0,1-14-14v-23a14,14,0,0,1,14-14h166.75m0-6H1184.86a20,20,0,0,0-20,20v23a20,20,0,0,0,20,20h166.75a20,20,0,0,0,20-20v-23a20,20,0,0,0-20-20Z"/><rect class="cls-3" x="1265.48" y="330.46" width="308.13" height="8"/><path class="cls-3" d="M1573.61,334.46h-25.72a32.72,32.72,0,0,0,7.53,21.21,24,24,0,0,0,18.19,8.79Z"/><path class="cls-3" d="M1268.89,334.45v30a24,24,0,0,0,18.19-8.79,32.72,32.72,0,0,0,7.54-21.21Z"/><rect class="cls-3" x="1135.15" y="460.8" width="267.54" height="6.86" transform="translate(804.68 1733.15) rotate(-90)"/><text id="course_title-4" data-name="course title" class="cls-4" transform="translate(1292.86 493.83)"/><text id="subtitle-4" data-name="subtitle" class="cls-5" transform="translate(1293.06 444.93)"/><text id="course_code-4" data-name="course code" class="cls-9" transform="translate(1192.8 641.39)"/><text id="faculty_name-7" data-name="faculty name" class="cls-10" transform="translate(1265.6 323.19)"/><text id="faculty_name-8" data-name="faculty name" class="cls-10" transform="translate(1265.6 287.43)"/></g><g id="_11-5" data-name="11"><rect class="cls-1" x="1476.07" y="2.98" width="200.75" height="56.96" rx="17"/><path class="cls-2" d="M1659.82,6a14,14,0,0,1,14,14v23a14,14,0,0,1-14,14H1493.07a14,14,0,0,1-14-14V20a14,14,0,0,1,14-14h166.75m0-6H1493.07a20,20,0,0,0-20,20v23a20,20,0,0,0,20,20h166.75a20,20,0,0,0,20-20V20a20,20,0,0,0-20-20Z"/><rect class="cls-3" x="1573.67" y="322.57" width="308.13" height="8"/><path class="cls-3" d="M1881.8,327h-25.72a32.74,32.74,0,0,1,7.53-21.21A24,24,0,0,1,1881.8,297Z"/><path class="cls-3" d="M1577.1,326.62v-30a24,24,0,0,1,18.19,8.79,32.74,32.74,0,0,1,7.53,21.21Z"/><rect class="cls-3" x="1443.33" y="193.42" width="267.54" height="6.86" transform="translate(1773.95 -1380.25) rotate(90)"/><text id="course_title-5" data-name="course title" class="cls-4" transform="translate(1599.07 109.36)"/><text id="subtitle-5" data-name="subtitle" class="cls-5" transform="translate(1599.27 234.46)"/><text id="course_code-5" data-name="course code" class="cls-9" transform="translate(1501.51 42.92)"/><text id="faculty_name-9" data-name="faculty name" class="cls-10" transform="translate(1573.23 360.8)"/><text id="faculty_name-10" data-name="faculty name" class="cls-10" transform="translate(1573.23 396.56)"/></g><g id="_11-6" data-name="11"><rect class="cls-1" x="1784.2" y="601.24" width="200.75" height="56.96" rx="17"/><path class="cls-2" d="M1968,604.24a14,14,0,0,1,14,14v23a14,14,0,0,1-14,14H1801.2a14,14,0,0,1-14-14v-23a14,14,0,0,1,14-14H1968m0-6H1801.2a20,20,0,0,0-20,20v23a20,20,0,0,0,20,20H1968a20,20,0,0,0,20-20v-23a20,20,0,0,0-20-20Z"/><rect class="cls-3" x="1881.82" y="330.57" width="308.13" height="8"/><path class="cls-3" d="M2190,334.57h-25.72a32.72,32.72,0,0,0,7.53,21.21,24,24,0,0,0,18.19,8.79Z"/><path class="cls-3" d="M1885.23,334.56v30a24,24,0,0,0,18.19-8.79,32.74,32.74,0,0,0,7.53-21.21Z"/><rect class="cls-3" x="1751.48" y="460.91" width="267.54" height="6.86" transform="translate(1420.91 2349.6) rotate(-90)"/><text id="course_title-6" data-name="course title" class="cls-4" transform="translate(1909.2 493.93)"/><text id="subtitle-6" data-name="subtitle" class="cls-5" transform="translate(1909.4 445.04)"/><text id="course_code-6" data-name="course code" class="cls-9" transform="translate(1809.14 641.5)"/><text id="faculty_name-11" data-name="faculty name" class="cls-10" transform="translate(1881.94 323.29)"/><text id="faculty_name-12" data-name="faculty name" class="cls-10" transform="translate(1881.94 287.53)"/></g><g id="_11-7" data-name="11"><rect class="cls-1" x="2092.41" y="2.99" width="200.75" height="56.96" rx="17"/><path class="cls-2" d="M2276.15,6a14,14,0,0,1,14,14V43a14,14,0,0,1-14,14H2109.41a14,14,0,0,1-14-14V20a14,14,0,0,1,14-14h166.74m0-6H2109.41a20,20,0,0,0-20,20V43a20,20,0,0,0,20,20h166.74a20,20,0,0,0,20-20V20a20,20,0,0,0-20-20Z"/><rect class="cls-3" x="2190" y="322.58" width="308.13" height="8"/><path class="cls-3" d="M2498.13,327h-25.72a32.67,32.67,0,0,1,7.54-21.21,24,24,0,0,1,18.18-8.79Z"/><path class="cls-3" d="M2193.43,326.64v-30a24,24,0,0,1,18.19,8.79,32.67,32.67,0,0,1,7.54,21.21Z"/><rect class="cls-3" x="2059.66" y="193.44" width="267.54" height="6.86" transform="translate(2390.31 -1996.56) rotate(90)"/><text id="course_title-7" data-name="course title" class="cls-4" transform="translate(2215.41 109.37)"/><text id="subtitle-7" data-name="subtitle" class="cls-5" transform="translate(2215.6 234.47)"/><text id="course_code-7" data-name="course code" class="cls-9" transform="translate(2117.84 42.93)"/><text id="faculty_name-13" data-name="faculty name" class="cls-10" transform="translate(2189.56 360.81)"/><text id="faculty_name-14" data-name="faculty name" class="cls-10" transform="translate(2189.56 396.57)"/></g><g id="_11-8" data-name="11"><rect class="cls-1" x="2400.54" y="601.26" width="200.75" height="56.96" rx="17"/><path class="cls-2" d="M2584.28,604.26a14,14,0,0,1,14,14v23a14,14,0,0,1-14,14H2417.54a14,14,0,0,1-14-14v-23a14,14,0,0,1,14-14h166.74m0-6H2417.54a20,20,0,0,0-20,20v23a20,20,0,0,0,20,20h166.74a20,20,0,0,0,20-20v-23a20,20,0,0,0-20-20Z"/><rect class="cls-3" x="2498.15" y="330.59" width="308.13" height="8"/><path class="cls-3" d="M2806.28,334.59h-25.72a32.69,32.69,0,0,0,7.54,21.21,24,24,0,0,0,18.18,8.79Z"/><path class="cls-3" d="M2501.57,334.57v30a24,24,0,0,0,18.18-8.78,32.7,32.7,0,0,0,7.54-21.22Z"/><rect class="cls-3" x="2367.82" y="460.93" width="267.54" height="6.86" transform="translate(2037.23 2965.95) rotate(-90)"/><text id="course_title-8" data-name="course title" class="cls-4" transform="translate(2525.54 493.95)"/><text id="subtitle-8" data-name="subtitle" class="cls-5" transform="translate(2525.73 445.05)"/><text id="course_code-8" data-name="course code" class="cls-9" transform="translate(2425.47 641.51)"/><text id="faculty_name-15" data-name="faculty name" class="cls-10" transform="translate(2498.27 323.31)"/><text id="faculty_name-16" data-name="faculty name" class="cls-10" transform="translate(2498.27 287.55)"/></g><g id="_11-9" data-name="11"><rect class="cls-1" x="2708.66" y="2.78" width="200.75" height="56.96" rx="17"/><path class="cls-2" d="M2892.41,5.78a14,14,0,0,1,14,14v23a14,14,0,0,1-14,14H2725.66a14,14,0,0,1-14-14v-23a14,14,0,0,1,14-14h166.75m0-6H2725.66a20,20,0,0,0-20,20v23a20,20,0,0,0,20,20h166.75a20,20,0,0,0,20-20v-23a20,20,0,0,0-20-20Z"/><rect class="cls-3" x="2806.26" y="322.37" width="308.13" height="8"/><path class="cls-3" d="M3114.39,326.76h-25.72a32.74,32.74,0,0,1,7.53-21.22,24,24,0,0,1,18.19-8.78Z"/><path class="cls-3" d="M2809.69,326.43v-30a24,24,0,0,1,18.19,8.78,32.74,32.74,0,0,1,7.53,21.22Z"/><rect class="cls-3" x="2675.92" y="193.23" width="267.54" height="6.86" transform="translate(3006.35 -2613.03) rotate(90)"/><text id="course_title-9" data-name="course title" class="cls-4" transform="translate(2831.66 109.16)"/><text id="subtitle-9" data-name="subtitle" class="cls-5" transform="translate(2831.86 234.26)"/><text id="course_code-9" data-name="course code" class="cls-9" transform="translate(2734.09 42.72)"/><text id="faculty_name-17" data-name="faculty name" class="cls-10" transform="translate(2805.82 360.6)"/><text id="faculty_name-18" data-name="faculty name" class="cls-10" transform="translate(2805.82 396.36)"/></g><g id="_11-10" data-name="11"><rect class="cls-1" x="3016.79" y="601.05" width="200.75" height="56.96" rx="17"/><path class="cls-2" d="M3200.54,604.05a14,14,0,0,1,14,14v23a14,14,0,0,1-14,14H3033.79a14,14,0,0,1-14-14v-23a14,14,0,0,1,14-14h166.75m0-6H3033.79a20,20,0,0,0-20,20v23a20,20,0,0,0,20,20h166.75a20,20,0,0,0,20-20v-23a20,20,0,0,0-20-20Z"/><rect class="cls-3" x="3114.41" y="330.37" width="308.13" height="8"/><path class="cls-3" d="M3422.54,334.37h-25.72a32.72,32.72,0,0,0,7.53,21.21,24,24,0,0,0,18.19,8.79Z"/><path class="cls-3" d="M3117.82,334.36v30a24,24,0,0,0,18.19-8.79,32.72,32.72,0,0,0,7.53-21.21Z"/><rect class="cls-3" x="2984.07" y="460.72" width="267.54" height="6.86" transform="translate(2653.7 3581.99) rotate(-90)"/><text id="course_title-10" data-name="course title" class="cls-4" transform="translate(3141.79 493.74)"/><text id="subtitle-10" data-name="subtitle" class="cls-5" transform="translate(3141.99 444.84)"/><text id="course_code-10" data-name="course code" class="cls-9" transform="translate(3041.73 641.3)"/><text id="faculty_name-19" data-name="faculty name" class="cls-10" transform="translate(3114.53 323.1)"/><text id="faculty_name-20" data-name="faculty name" class="cls-10" transform="translate(3114.53 287.34)"/></g></g></svg>