<?xml version="1.0" ?><svg xmlns="http://www.w3.org/2000/svg" id="Layer_1" data-name="Layer 1" viewBox="0 0 3736 661"><defs><style>.cls-4{font-size:38px;font-family:BwModelica-Bold, Bw Modelica;font-weight:700;}.cls-10,.cls-4,.cls-5,.cls-9{fill:#231f20;}.cls-5{font-size:33px;font-family:BwModelica-RegularItalic, Bw Modelica;}.cls-10,.cls-5{font-style:italic;}.cls-6{letter-spacing:-0.03em;}.cls-7{letter-spacing:-0.01em;}.cls-8{letter-spacing:-0.02em;}.cls-9{font-size:30px;font-family:BwModelica-ExtraBold, Bw Modelica;font-weight:800;}.cls-10{font-size:28px;font-family:BwModelica-LightItalic, Bw Modelica;font-weight:300;}</style></defs><g id="_11_courses" data-name="11 courses"><g id="_11" data-name="11"><rect class="cls-1" x="2.78" y="2.51" width="200.75" height="56.96" rx="17"/><path class="cls-2" d="M186.52,5.51a14,14,0,0,1,14,14v23a14,14,0,0,1-14,14H19.78a14,14,0,0,1-14-14v-23a14,14,0,0,1,14-14H186.52m0-6H19.78a20,20,0,0,0-20,20v23a20,20,0,0,0,20,20H186.52a20,20,0,0,0,20-20v-23a20,20,0,0,0-20-20Z"/><rect class="cls-3" x="100.38" y="322.1" width="308.13" height="8"/><path class="cls-3" d="M408.51,326.49H382.78a32.7,32.7,0,0,1,7.54-21.22,24,24,0,0,1,18.19-8.78Z"/><path class="cls-3" d="M103.81,326.16v-30A24,24,0,0,1,122,304.94a32.74,32.74,0,0,1,7.53,21.22Z"/><rect class="cls-3" x="-29.96" y="192.96" width="267.54" height="6.86" transform="translate(300.19 92.58) rotate(90)"/><text id="course_title" data-name="course title" class="cls-4" transform="translate(125.78 108.89)"/><text id="subtitle" class="cls-5" transform="translate(125.98 233.99)"/><text id="course_code" data-name="course code" class="cls-9" transform="translate(28.21 42.45)"/><text id="faculty_name" data-name="faculty name" class="cls-10" transform="translate(99.94 360.33)"/><text id="faculty_name-2" data-name="faculty name" class="cls-10" transform="translate(99.94 396.09)"/></g><g id="_11-2" data-name="11"><rect class="cls-1" x="310.91" y="600.78" width="200.75" height="56.96" rx="17"/><path class="cls-2" d="M494.66,603.78a14,14,0,0,1,14,14v23a14,14,0,0,1-14,14H327.91a14,14,0,0,1-14-14v-23a14,14,0,0,1,14-14H494.66m0-6H327.91a20,20,0,0,0-20,20v23a20,20,0,0,0,20,20H494.66a20,20,0,0,0,20-20v-23a20,20,0,0,0-20-20Z"/><rect class="cls-3" x="408.53" y="330.1" width="308.13" height="8"/><path class="cls-3" d="M716.66,334.1H690.93a32.67,32.67,0,0,0,7.54,21.21,24,24,0,0,0,18.19,8.79Z"/><path class="cls-3" d="M411.94,334.09v30a24,24,0,0,0,18.19-8.79,32.72,32.72,0,0,0,7.53-21.21Z"/><rect class="cls-3" x="278.19" y="460.45" width="267.54" height="6.86" transform="translate(-51.92 875.83) rotate(-90)"/><text id="course_title-2" data-name="course title" class="cls-4" transform="translate(435.91 493.47)"/><text id="subtitle-2" data-name="subtitle" class="cls-5" transform="translate(436.11 444.57)"/><text id="course_code-2" data-name="course code" class="cls-9" transform="translate(335.84 641.03)"/><text id="faculty_name-3" data-name="faculty name" class="cls-10" transform="translate(408.64 322.83)"/><text id="faculty_name-4" data-name="faculty name" class="cls-10" transform="translate(408.64 287.07)"/></g><g id="_11-3" data-name="11"><rect class="cls-1" x="619.11" y="2.53" width="200.75" height="56.96" rx="17"/><path class="cls-2" d="M802.86,5.53a14,14,0,0,1,14,14v23a14,14,0,0,1-14,14H636.11a14,14,0,0,1-14-14v-23a14,14,0,0,1,14-14H802.86m0-6H636.11a20,20,0,0,0-20,20v23a20,20,0,0,0,20,20H802.86a20,20,0,0,0,20-20v-23a20,20,0,0,0-20-20Z"/><rect class="cls-3" x="716.71" y="322.12" width="308.13" height="8"/><path class="cls-3" d="M1024.84,326.5H999.12a32.74,32.74,0,0,1,7.53-21.21,24,24,0,0,1,18.19-8.79Z"/><path class="cls-3" d="M720.14,326.17v-30A24,24,0,0,1,738.33,305a32.74,32.74,0,0,1,7.53,21.21Z"/><rect class="cls-3" x="586.37" y="192.98" width="267.54" height="6.86" transform="translate(916.55 -523.74) rotate(90)"/><text id="course_title-3" data-name="course title" class="cls-4" transform="translate(742.11 108.91)"/><text id="subtitle-3" data-name="subtitle" class="cls-5" transform="translate(742.31 234.01)"/><text id="course_code-3" data-name="course code" class="cls-9" transform="translate(644.55 42.47)"/><text id="faculty_name-5" data-name="faculty name" class="cls-10" transform="translate(716.27 360.35)"/><text id="faculty_name-6" data-name="faculty name" class="cls-10" transform="translate(716.27 396.11)"/></g><g id="_11-4" data-name="11"><rect class="cls-1" x="927.24" y="600.79" width="200.75" height="56.96" rx="17"/><path class="cls-2" d="M1111,603.79a14,14,0,0,1,14,14v23a14,14,0,0,1-14,14H944.24a14,14,0,0,1-14-14v-23a14,14,0,0,1,14-14H1111m0-6H944.24a20,20,0,0,0-20,20v23a20,20,0,0,0,20,20H1111a20,20,0,0,0,20-20v-23a20,20,0,0,0-20-20Z"/><rect class="cls-3" x="1024.86" y="330.12" width="308.13" height="8"/><path class="cls-3" d="M1333,334.12h-25.72a32.72,32.72,0,0,0,7.53,21.21,24,24,0,0,0,18.19,8.79Z"/><path class="cls-3" d="M1028.27,334.11v30a24,24,0,0,0,18.19-8.79,32.74,32.74,0,0,0,7.53-21.21Z"/><rect class="cls-3" x="894.52" y="460.46" width="267.54" height="6.86" transform="translate(564.4 1492.19) rotate(-90)"/><text id="course_title-4" data-name="course title" class="cls-4" transform="translate(1052.24 493.48)"/><text id="subtitle-4" data-name="subtitle" class="cls-5" transform="translate(1052.44 444.59)"/><text id="course_code-4" data-name="course code" class="cls-9" transform="translate(952.18 641.05)"/><text id="faculty_name-7" data-name="faculty name" class="cls-10" transform="translate(1024.98 322.84)"/><text id="faculty_name-8" data-name="faculty name" class="cls-10" transform="translate(1024.98 287.08)"/></g><g id="_11-5" data-name="11"><rect class="cls-1" x="1235.45" y="2.64" width="200.75" height="56.96" rx="17"/><path class="cls-2" d="M1419.2,5.64a14,14,0,0,1,14,14v23a14,14,0,0,1-14,14H1252.45a14,14,0,0,1-14-14v-23a14,14,0,0,1,14-14H1419.2m0-6H1252.45a20,20,0,0,0-20,20v23a20,20,0,0,0,20,20H1419.2a20,20,0,0,0,20-20v-23a20,20,0,0,0-20-20Z"/><rect class="cls-3" x="1333.05" y="322.23" width="308.13" height="8"/><path class="cls-3" d="M1641.18,326.61h-25.73A32.72,32.72,0,0,1,1623,305.4a24,24,0,0,1,18.19-8.79Z"/><path class="cls-3" d="M1336.48,326.28v-30a24,24,0,0,1,18.19,8.79,32.72,32.72,0,0,1,7.53,21.21Z"/><rect class="cls-3" x="1202.71" y="193.08" width="267.54" height="6.86" transform="translate(1532.99 -1139.96) rotate(90)"/><text id="course_title-5" data-name="course title" class="cls-4" transform="translate(1358.45 109.02)"/><text id="subtitle-5" data-name="subtitle" class="cls-5" transform="translate(1358.65 234.12)"/><text id="course_code-5" data-name="course code" class="cls-9" transform="translate(1260.88 42.58)"/><text id="faculty_name-9" data-name="faculty name" class="cls-10" transform="translate(1332.61 360.45)"/><text id="faculty_name-10" data-name="faculty name" class="cls-10" transform="translate(1332.61 396.22)"/></g><g id="_11-6" data-name="11"><rect class="cls-1" x="1543.58" y="600.9" width="200.75" height="56.96" rx="17"/><path class="cls-2" d="M1727.33,603.9a14,14,0,0,1,14,14v23a14,14,0,0,1-14,14H1560.58a14,14,0,0,1-14-14v-23a14,14,0,0,1,14-14h166.75m0-6H1560.58a20,20,0,0,0-20,20v23a20,20,0,0,0,20,20h166.75a20,20,0,0,0,20-20v-23a20,20,0,0,0-20-20Z"/><rect class="cls-3" x="1641.2" y="330.23" width="308.13" height="8"/><path class="cls-3" d="M1949.33,334.23H1923.6a32.72,32.72,0,0,0,7.54,21.21,24,24,0,0,0,18.19,8.79Z"/><path class="cls-3" d="M1644.61,334.21v30a24,24,0,0,0,18.19-8.78,32.74,32.74,0,0,0,7.53-21.22Z"/><rect class="cls-3" x="1510.86" y="460.57" width="267.54" height="6.86" transform="translate(1180.63 2108.63) rotate(-90)"/><text id="course_title-6" data-name="course title" class="cls-4" transform="translate(1668.58 493.59)"/><text id="subtitle-6" data-name="subtitle" class="cls-5" transform="translate(1668.78 444.69)"/><text id="course_code-6" data-name="course code" class="cls-9" transform="translate(1568.51 641.15)"/><text id="faculty_name-11" data-name="faculty name" class="cls-10" transform="translate(1641.32 322.95)"/><text id="faculty_name-12" data-name="faculty name" class="cls-10" transform="translate(1641.32 287.19)"/></g><g id="_11-7" data-name="11"><rect class="cls-1" x="1851.78" y="2.65" width="200.75" height="56.96" rx="17"/><path class="cls-2" d="M2035.53,5.65a14,14,0,0,1,14,14v23a14,14,0,0,1-14,14H1868.78a14,14,0,0,1-14-14v-23a14,14,0,0,1,14-14h166.75m0-6H1868.78a20,20,0,0,0-20,20v23a20,20,0,0,0,20,20h166.75a20,20,0,0,0,20-20v-23a20,20,0,0,0-20-20Z"/><rect class="cls-3" x="1949.38" y="322.24" width="308.13" height="8"/><path class="cls-3" d="M2257.51,326.63h-25.72a32.72,32.72,0,0,1,7.53-21.21,24,24,0,0,1,18.19-8.79Z"/><path class="cls-3" d="M1952.81,326.3v-30a24,24,0,0,1,18.19,8.79,32.72,32.72,0,0,1,7.54,21.21Z"/><rect class="cls-3" x="1819.04" y="193.1" width="267.54" height="6.86" transform="translate(2149.34 -1756.28) rotate(90)"/><text id="course_title-7" data-name="course title" class="cls-4" transform="translate(1974.78 109.03)"/><text id="subtitle-7" data-name="subtitle" class="cls-5" transform="translate(1974.98 234.13)"/><text id="course_code-7" data-name="course code" class="cls-9" transform="translate(1877.22 42.59)"/><text id="faculty_name-13" data-name="faculty name" class="cls-10" transform="translate(1948.94 360.47)"/><text id="faculty_name-14" data-name="faculty name" class="cls-10" transform="translate(1948.94 396.23)"/></g><g id="_11-8" data-name="11"><rect class="cls-1" x="2159.92" y="600.92" width="200.75" height="56.96" rx="17"/><path class="cls-2" d="M2343.66,603.92a14,14,0,0,1,14,14v23a14,14,0,0,1-14,14H2176.92a14,14,0,0,1-14-14v-23a14,14,0,0,1,14-14h166.74m0-6H2176.92a20,20,0,0,0-20,20v23a20,20,0,0,0,20,20h166.74a20,20,0,0,0,20-20v-23a20,20,0,0,0-20-20Z"/><rect class="cls-3" x="2257.53" y="330.24" width="308.13" height="8"/><path class="cls-3" d="M2565.66,334.24h-25.72a32.74,32.74,0,0,0,7.53,21.22,24,24,0,0,0,18.19,8.78Z"/><path class="cls-3" d="M2260.94,334.23v30a24,24,0,0,0,18.19-8.79,32.72,32.72,0,0,0,7.54-21.21Z"/><rect class="cls-3" x="2127.2" y="460.59" width="267.54" height="6.86" transform="translate(1796.95 2724.98) rotate(-90)"/><text id="course_title-8" data-name="course title" class="cls-4" transform="translate(2284.92 493.61)"/><text id="subtitle-8" data-name="subtitle" class="cls-5" transform="translate(2285.11 444.71)"/><text id="course_code-8" data-name="course code" class="cls-9" transform="translate(2184.85 641.17)"/><text id="faculty_name-15" data-name="faculty name" class="cls-10" transform="translate(2257.65 322.97)"/><text id="faculty_name-16" data-name="faculty name" class="cls-10" transform="translate(2257.65 287.21)"/></g><g id="_11-9" data-name="11"><rect class="cls-1" x="2468.04" y="2.44" width="200.75" height="56.96" rx="17"/><path class="cls-2" d="M2651.79,5.44a14,14,0,0,1,14,14v23a14,14,0,0,1-14,14H2485a14,14,0,0,1-14-14v-23a14,14,0,0,1,14-14h166.75m0-6H2485a20,20,0,0,0-20,20v23a20,20,0,0,0,20,20h166.75a20,20,0,0,0,20-20v-23a20,20,0,0,0-20-20Z"/><rect class="cls-3" x="2565.64" y="322.03" width="308.13" height="8"/><path class="cls-3" d="M2873.77,326.42H2848a32.75,32.75,0,0,1,7.54-21.22,24,24,0,0,1,18.19-8.78Z"/><path class="cls-3" d="M2569.07,326.09v-30a24,24,0,0,1,18.19,8.78,32.74,32.74,0,0,1,7.53,21.22Z"/><rect class="cls-3" x="2435.3" y="192.89" width="267.54" height="6.86" transform="translate(2765.38 -2372.75) rotate(90)"/><text id="course_title-9" data-name="course title" class="cls-4" transform="translate(2591.04 108.82)"/><text id="subtitle-9" data-name="subtitle" class="cls-5" transform="translate(2591.24 233.92)"/><text id="course_code-9" data-name="course code" class="cls-9" transform="translate(2493.47 42.38)"/><text id="faculty_name-17" data-name="faculty name" class="cls-10" transform="translate(2565.2 360.26)"/><text id="faculty_name-18" data-name="faculty name" class="cls-10" transform="translate(2565.2 396.02)"/></g><g id="_11-10" data-name="11"><rect class="cls-1" x="2776.17" y="600.7" width="200.75" height="56.96" rx="17"/><path class="cls-2" d="M2959.92,603.7a14,14,0,0,1,14,14v23a14,14,0,0,1-14,14H2793.17a14,14,0,0,1-14-14v-23a14,14,0,0,1,14-14h166.75m0-6H2793.17a20,20,0,0,0-20,20v23a20,20,0,0,0,20,20h166.75a20,20,0,0,0,20-20v-23a20,20,0,0,0-20-20Z"/><rect class="cls-3" x="2873.79" y="330.03" width="308.13" height="8"/><path class="cls-3" d="M3181.92,334h-25.73a32.72,32.72,0,0,0,7.54,21.21,24,24,0,0,0,18.19,8.79Z"/><path class="cls-3" d="M2877.2,334v30a24,24,0,0,0,18.19-8.79,32.72,32.72,0,0,0,7.53-21.21Z"/><rect class="cls-3" x="2743.45" y="460.37" width="267.54" height="6.86" transform="translate(2413.42 3341.02) rotate(-90)"/><text id="course_title-10" data-name="course title" class="cls-4" transform="translate(2901.17 493.4)"/><text id="subtitle-10" data-name="subtitle" class="cls-5" transform="translate(2901.37 444.5)"/><text id="course_code-10" data-name="course code" class="cls-9" transform="translate(2801.1 640.96)"/><text id="faculty_name-19" data-name="faculty name" class="cls-10" transform="translate(2873.91 322.76)"/><text id="faculty_name-20" data-name="faculty name" class="cls-10" transform="translate(2873.91 287)"/></g><g id="_11-11" data-name="11"><rect class="cls-1" x="3084.37" y="2.46" width="200.75" height="56.96" rx="17"/><path class="cls-2" d="M3268.12,5.46a14,14,0,0,1,14,14v23a14,14,0,0,1-14,14H3101.37a14,14,0,0,1-14-14v-23a14,14,0,0,1,14-14h166.75m0-6H3101.37a20,20,0,0,0-20,20v23a20,20,0,0,0,20,20h166.75a20,20,0,0,0,20-20v-23a20,20,0,0,0-20-20Z"/><rect class="cls-3" x="3181.97" y="322.05" width="308.13" height="8"/><path class="cls-3" d="M3490.1,326.43h-25.72a32.72,32.72,0,0,1,7.53-21.21,24,24,0,0,1,18.19-8.79Z"/><path class="cls-3" d="M3185.4,326.1v-30a24,24,0,0,1,18.19,8.79,32.72,32.72,0,0,1,7.54,21.21Z"/><rect class="cls-3" x="3051.63" y="192.9" width="267.54" height="6.86" transform="translate(3381.74 -2989.07) rotate(90)"/><text id="course_title-11" data-name="course title" class="cls-4" transform="translate(3207.37 108.84)"/><text id="subtitle-11" data-name="subtitle" class="cls-5" transform="translate(3207.57 233.94)"/><text id="course_code-11" data-name="course code" class="cls-9" transform="translate(3109.81 42.4)"/><text id="faculty_name-21" data-name="faculty name" class="cls-10" transform="translate(3181.53 360.28)"/><text id="faculty_name-22" data-name="faculty name" class="cls-10" transform="translate(3181.53 396.04)"/></g></g></svg>