<?xml version="1.0" ?><svg xmlns="http://www.w3.org/2000/svg" id="Layer_1" data-name="Layer 1" viewBox="0 0 3736 661"><defs><style>.cls-4{font-size:38px;font-family:BwModelica-Bold, Bw Modelica;font-weight:700;}.cls-10,.cls-4,.cls-5,.cls-9{fill:#231f20;}.cls-5{font-size:33px;font-family:BwModelica-RegularItalic, Bw Modelica;}.cls-10,.cls-5{font-style:italic;}.cls-6{letter-spacing:-0.03em;}.cls-7{letter-spacing:-0.01em;}.cls-8{letter-spacing:-0.02em;}.cls-9{font-size:30px;font-family:BwModelica-ExtraBold, Bw Modelica;font-weight:800;}.cls-10{font-size:28px;font-family:BwModelica-LightItalic, Bw Modelica;font-weight:300;}</style></defs><g id="_12_courses" data-name="12 courses"><g id="_13" data-name="13"><rect class="cls-1" x="231" y="3" width="200.75" height="56.96" rx="17"/><path class="cls-2" d="M414.75,6a14,14,0,0,1,14,14V43a14,14,0,0,1-14,14H248a14,14,0,0,1-14-14V20A14,14,0,0,1,248,6H414.75m0-6H248a20,20,0,0,0-20,20V43a20,20,0,0,0,20,20H414.75a20,20,0,0,0,20-20V20a20,20,0,0,0-20-20Z"/><rect class="cls-3" x="328.6" y="322.65" width="256.05" height="8"/><path class="cls-3" d="M584.64,326.65H558.92a32.7,32.7,0,0,1,7.54-21.22,24,24,0,0,1,18.18-8.78Z"/><path class="cls-3" d="M332,326.65v-30a24,24,0,0,1,18.19,8.78,32.74,32.74,0,0,1,7.53,21.22Z"/><rect class="cls-3" x="198.26" y="193.45" width="267.54" height="6.86" transform="translate(528.91 -135.15) rotate(90)"/><text id="course_title" data-name="course title" class="cls-4" transform="translate(354 109.38)"/><text id="subtitle" class="cls-5" transform="translate(354.2 234.48)"/><text id="course_code" data-name="course code" class="cls-9" transform="translate(256.43 42.94)"/><text id="faculty_name" data-name="faculty name" class="cls-10" transform="translate(328.16 360.82)"/></g><g id="_13-2" data-name="13"><rect class="cls-1" x="487" y="600.69" width="200.75" height="56.96" rx="17"/><path class="cls-2" d="M670.75,603.69a14,14,0,0,1,14,14v23a14,14,0,0,1-14,14H504a14,14,0,0,1-14-14v-23a14,14,0,0,1,14-14H670.75m0-6H504a20,20,0,0,0-20,20v23a20,20,0,0,0,20,20H670.75a20,20,0,0,0,20-20v-23a20,20,0,0,0-20-20Z"/><rect class="cls-3" x="584.6" y="330" width="256.05" height="8"/><path class="cls-3" d="M840.64,334H814.92a32.67,32.67,0,0,0,7.54,21.21A24,24,0,0,0,840.64,364Z"/><path class="cls-3" d="M588,334v30a24,24,0,0,0,18.19-8.79A32.72,32.72,0,0,0,613.75,334Z"/><rect class="cls-3" x="454.26" y="460.34" width="267.54" height="6.86" transform="translate(124.26 1051.8) rotate(-90)"/><text id="course_title-2" data-name="course title" class="cls-4" transform="translate(612 493.38)"/><text id="subtitle-2" data-name="subtitle" class="cls-5" transform="translate(612.2 444.48)"/><text id="course_code-2" data-name="course code" class="cls-9" transform="translate(511.93 640.94)"/><text id="faculty_name-2" data-name="faculty name" class="cls-10" transform="translate(584.74 322.74)"/></g><g id="_13-3" data-name="13"><rect class="cls-1" x="743" y="3" width="200.75" height="56.96" rx="17"/><path class="cls-2" d="M926.75,6a14,14,0,0,1,14,14V43a14,14,0,0,1-14,14H760a14,14,0,0,1-14-14V20A14,14,0,0,1,760,6H926.75m0-6H760a20,20,0,0,0-20,20V43a20,20,0,0,0,20,20H926.75a20,20,0,0,0,20-20V20a20,20,0,0,0-20-20Z"/><rect class="cls-3" x="840.6" y="322.65" width="256.05" height="8"/><path class="cls-3" d="M1096.64,326.65h-25.72a32.7,32.7,0,0,1,7.54-21.22,24,24,0,0,1,18.18-8.78Z"/><path class="cls-3" d="M844,326.65v-30a24,24,0,0,1,18.19,8.78,32.74,32.74,0,0,1,7.53,21.22Z"/><rect class="cls-3" x="710.26" y="193.45" width="267.54" height="6.86" transform="translate(1040.91 -647.15) rotate(90)"/><text id="course_title-3" data-name="course title" class="cls-4" transform="translate(866 109.38)"/><text id="subtitle-3" data-name="subtitle" class="cls-5" transform="translate(866.2 234.48)"/><text id="course_code-3" data-name="course code" class="cls-9" transform="translate(768.43 42.94)"/><text id="faculty_name-3" data-name="faculty name" class="cls-10" transform="translate(840.16 360.82)"/></g><g id="_13-4" data-name="13"><rect class="cls-1" x="999" y="600.69" width="200.75" height="56.96" rx="17"/><path class="cls-2" d="M1182.75,603.69a14,14,0,0,1,14,14v23a14,14,0,0,1-14,14H1016a14,14,0,0,1-14-14v-23a14,14,0,0,1,14-14h166.75m0-6H1016a20,20,0,0,0-20,20v23a20,20,0,0,0,20,20h166.75a20,20,0,0,0,20-20v-23a20,20,0,0,0-20-20Z"/><rect class="cls-3" x="1096.6" y="330" width="256.05" height="8"/><path class="cls-3" d="M1352.64,334h-25.72a32.67,32.67,0,0,0,7.54,21.21,24,24,0,0,0,18.18,8.79Z"/><path class="cls-3" d="M1100,334v30a24,24,0,0,0,18.19-8.79,32.72,32.72,0,0,0,7.53-21.21Z"/><rect class="cls-3" x="966.26" y="460.34" width="267.54" height="6.86" transform="translate(636.26 1563.8) rotate(-90)"/><text id="course_title-4" data-name="course title" class="cls-4" transform="translate(1124 493.38)"/><text id="subtitle-4" data-name="subtitle" class="cls-5" transform="translate(1124.2 444.48)"/><text id="course_code-4" data-name="course code" class="cls-9" transform="translate(1023.93 640.94)"/><text id="faculty_name-4" data-name="faculty name" class="cls-10" transform="translate(1096.74 322.74)"/></g><g id="_13-5" data-name="13"><rect class="cls-1" x="1255" y="3" width="200.75" height="56.96" rx="17"/><path class="cls-2" d="M1438.75,6a14,14,0,0,1,14,14V43a14,14,0,0,1-14,14H1272a14,14,0,0,1-14-14V20a14,14,0,0,1,14-14h166.75m0-6H1272a20,20,0,0,0-20,20V43a20,20,0,0,0,20,20h166.75a20,20,0,0,0,20-20V20a20,20,0,0,0-20-20Z"/><rect class="cls-3" x="1352.6" y="322.65" width="256.05" height="8"/><path class="cls-3" d="M1608.64,326.65h-25.72a32.7,32.7,0,0,1,7.54-21.22,24,24,0,0,1,18.18-8.78Z"/><path class="cls-3" d="M1356,326.65v-30a24,24,0,0,1,18.19,8.78,32.74,32.74,0,0,1,7.53,21.22Z"/><rect class="cls-3" x="1222.26" y="193.45" width="267.54" height="6.86" transform="translate(1552.91 -1159.15) rotate(90)"/><text id="course_title-5" data-name="course title" class="cls-4" transform="translate(1378 109.38)"/><text id="subtitle-5" data-name="subtitle" class="cls-5" transform="translate(1378.2 234.48)"/><text id="course_code-5" data-name="course code" class="cls-9" transform="translate(1280.43 42.94)"/><text id="faculty_name-5" data-name="faculty name" class="cls-10" transform="translate(1352.16 360.82)"/></g><g id="_13-6" data-name="13"><rect class="cls-1" x="1511" y="600.69" width="200.75" height="56.96" rx="17"/><path class="cls-2" d="M1694.75,603.69a14,14,0,0,1,14,14v23a14,14,0,0,1-14,14H1528a14,14,0,0,1-14-14v-23a14,14,0,0,1,14-14h166.75m0-6H1528a20,20,0,0,0-20,20v23a20,20,0,0,0,20,20h166.75a20,20,0,0,0,20-20v-23a20,20,0,0,0-20-20Z"/><rect class="cls-3" x="1608.6" y="330" width="256.05" height="8"/><path class="cls-3" d="M1864.64,334h-25.72a32.67,32.67,0,0,0,7.54,21.21,24,24,0,0,0,18.18,8.79Z"/><path class="cls-3" d="M1612,334v30a24,24,0,0,0,18.19-8.79,32.72,32.72,0,0,0,7.53-21.21Z"/><rect class="cls-3" x="1478.26" y="460.34" width="267.54" height="6.86" transform="translate(1148.26 2075.8) rotate(-90)"/><text id="course_title-6" data-name="course title" class="cls-4" transform="translate(1636 493.38)"/><text id="subtitle-6" data-name="subtitle" class="cls-5" transform="translate(1636.2 444.48)"/><text id="course_code-6" data-name="course code" class="cls-9" transform="translate(1535.93 640.94)"/><text id="faculty_name-6" data-name="faculty name" class="cls-10" transform="translate(1608.74 322.74)"/></g><g id="_13-7" data-name="13"><rect class="cls-1" x="1767" y="3" width="200.75" height="56.96" rx="17"/><path class="cls-2" d="M1950.75,6a14,14,0,0,1,14,14V43a14,14,0,0,1-14,14H1784a14,14,0,0,1-14-14V20a14,14,0,0,1,14-14h166.75m0-6H1784a20,20,0,0,0-20,20V43a20,20,0,0,0,20,20h166.75a20,20,0,0,0,20-20V20a20,20,0,0,0-20-20Z"/><rect class="cls-3" x="1864.6" y="322.65" width="256.05" height="8"/><path class="cls-3" d="M2120.64,326.65h-25.72a32.7,32.7,0,0,1,7.54-21.22,24,24,0,0,1,18.18-8.78Z"/><path class="cls-3" d="M1868,326.65v-30a24,24,0,0,1,18.19,8.78,32.74,32.74,0,0,1,7.53,21.22Z"/><rect class="cls-3" x="1734.26" y="193.45" width="267.54" height="6.86" transform="translate(2064.91 -1671.15) rotate(90)"/><text id="course_title-7" data-name="course title" class="cls-4" transform="translate(1890 109.38)"/><text id="subtitle-7" data-name="subtitle" class="cls-5" transform="translate(1890.2 234.48)"/><text id="course_code-7" data-name="course code" class="cls-9" transform="translate(1792.43 42.94)"/><text id="faculty_name-7" data-name="faculty name" class="cls-10" transform="translate(1864.16 360.82)"/></g><g id="_13-8" data-name="13"><rect class="cls-1" x="2023" y="600.69" width="200.75" height="56.96" rx="17"/><path class="cls-2" d="M2206.75,603.69a14,14,0,0,1,14,14v23a14,14,0,0,1-14,14H2040a14,14,0,0,1-14-14v-23a14,14,0,0,1,14-14h166.75m0-6H2040a20,20,0,0,0-20,20v23a20,20,0,0,0,20,20h166.75a20,20,0,0,0,20-20v-23a20,20,0,0,0-20-20Z"/><rect class="cls-3" x="2120.6" y="330" width="256.05" height="8"/><path class="cls-3" d="M2376.64,334h-25.72a32.67,32.67,0,0,0,7.54,21.21,24,24,0,0,0,18.18,8.79Z"/><path class="cls-3" d="M2124,334v30a24,24,0,0,0,18.19-8.79,32.72,32.72,0,0,0,7.53-21.21Z"/><rect class="cls-3" x="1990.26" y="460.34" width="267.54" height="6.86" transform="translate(1660.26 2587.8) rotate(-90)"/><text id="course_title-8" data-name="course title" class="cls-4" transform="translate(2148 493.38)"/><text id="subtitle-8" data-name="subtitle" class="cls-5" transform="translate(2148.2 444.48)"/><text id="course_code-8" data-name="course code" class="cls-9" transform="translate(2047.93 640.94)"/><text id="faculty_name-8" data-name="faculty name" class="cls-10" transform="translate(2120.74 322.74)"/></g><g id="_13-9" data-name="13"><rect class="cls-1" x="2279" y="3" width="200.75" height="56.96" rx="17"/><path class="cls-2" d="M2462.75,6a14,14,0,0,1,14,14V43a14,14,0,0,1-14,14H2296a14,14,0,0,1-14-14V20a14,14,0,0,1,14-14h166.75m0-6H2296a20,20,0,0,0-20,20V43a20,20,0,0,0,20,20h166.75a20,20,0,0,0,20-20V20a20,20,0,0,0-20-20Z"/><rect class="cls-3" x="2376.6" y="322.65" width="256.05" height="8"/><path class="cls-3" d="M2632.64,326.65h-25.72a32.7,32.7,0,0,1,7.54-21.22,24,24,0,0,1,18.18-8.78Z"/><path class="cls-3" d="M2380,326.65v-30a24,24,0,0,1,18.19,8.78,32.74,32.74,0,0,1,7.53,21.22Z"/><rect class="cls-3" x="2246.26" y="193.45" width="267.54" height="6.86" transform="translate(2576.91 -2183.15) rotate(90)"/><text id="course_title-9" data-name="course title" class="cls-4" transform="translate(2402 109.38)"/><text id="subtitle-9" data-name="subtitle" class="cls-5" transform="translate(2402.2 234.48)"/><text id="course_code-9" data-name="course code" class="cls-9" transform="translate(2304.43 42.94)"/><text id="faculty_name-9" data-name="faculty name" class="cls-10" transform="translate(2376.16 360.82)"/></g><g id="_13-10" data-name="13"><rect class="cls-1" x="2535" y="600.69" width="200.75" height="56.96" rx="17"/><path class="cls-2" d="M2718.75,603.69a14,14,0,0,1,14,14v23a14,14,0,0,1-14,14H2552a14,14,0,0,1-14-14v-23a14,14,0,0,1,14-14h166.75m0-6H2552a20,20,0,0,0-20,20v23a20,20,0,0,0,20,20h166.75a20,20,0,0,0,20-20v-23a20,20,0,0,0-20-20Z"/><rect class="cls-3" x="2632.6" y="330" width="256.05" height="8"/><path class="cls-3" d="M2888.64,334h-25.72a32.67,32.67,0,0,0,7.54,21.21,24,24,0,0,0,18.18,8.79Z"/><path class="cls-3" d="M2636,334v30a24,24,0,0,0,18.19-8.79,32.72,32.72,0,0,0,7.53-21.21Z"/><rect class="cls-3" x="2502.26" y="460.34" width="267.54" height="6.86" transform="translate(2172.26 3099.8) rotate(-90)"/><text id="course_title-10" data-name="course title" class="cls-4" transform="translate(2660 493.38)"/><text id="subtitle-10" data-name="subtitle" class="cls-5" transform="translate(2660.2 444.48)"/><text id="course_code-10" data-name="course code" class="cls-9" transform="translate(2559.93 640.94)"/><text id="faculty_name-10" data-name="faculty name" class="cls-10" transform="translate(2632.74 322.74)"/></g><g id="_13-11" data-name="13"><rect class="cls-1" x="2791" y="3" width="200.75" height="56.96" rx="17"/><path class="cls-2" d="M2974.75,6a14,14,0,0,1,14,14V43a14,14,0,0,1-14,14H2808a14,14,0,0,1-14-14V20a14,14,0,0,1,14-14h166.75m0-6H2808a20,20,0,0,0-20,20V43a20,20,0,0,0,20,20h166.75a20,20,0,0,0,20-20V20a20,20,0,0,0-20-20Z"/><rect class="cls-3" x="2888.6" y="322.65" width="256.05" height="8"/><path class="cls-3" d="M3144.64,326.65h-25.72a32.7,32.7,0,0,1,7.54-21.22,24,24,0,0,1,18.18-8.78Z"/><path class="cls-3" d="M2892,326.65v-30a24,24,0,0,1,18.19,8.78,32.74,32.74,0,0,1,7.53,21.22Z"/><rect class="cls-3" x="2758.26" y="193.45" width="267.54" height="6.86" transform="translate(3088.91 -2695.15) rotate(90)"/><text id="course_title-11" data-name="course title" class="cls-4" transform="translate(2914 109.38)"/><text id="subtitle-11" data-name="subtitle" class="cls-5" transform="translate(2914.2 234.48)"/><text id="course_code-11" data-name="course code" class="cls-9" transform="translate(2816.43 42.94)"/><text id="faculty_name-11" data-name="faculty name" class="cls-10" transform="translate(2888.16 360.82)"/></g><g id="_13-12" data-name="13"><rect class="cls-1" x="3047" y="600.69" width="200.75" height="56.96" rx="17"/><path class="cls-2" d="M3230.75,603.69a14,14,0,0,1,14,14v23a14,14,0,0,1-14,14H3064a14,14,0,0,1-14-14v-23a14,14,0,0,1,14-14h166.75m0-6H3064a20,20,0,0,0-20,20v23a20,20,0,0,0,20,20h166.75a20,20,0,0,0,20-20v-23a20,20,0,0,0-20-20Z"/><rect class="cls-3" x="3144.6" y="330" width="256.05" height="8"/><path class="cls-3" d="M3400.64,334h-25.72a32.67,32.67,0,0,0,7.54,21.21,24,24,0,0,0,18.18,8.79Z"/><path class="cls-3" d="M3148,334v30a24,24,0,0,0,18.19-8.79,32.72,32.72,0,0,0,7.53-21.21Z"/><rect class="cls-3" x="3014.26" y="460.34" width="267.54" height="6.86" transform="translate(2684.26 3611.8) rotate(-90)"/><text id="course_title-12" data-name="course title" class="cls-4" transform="translate(3172 493.38)"/><text id="subtitle-12" data-name="subtitle" class="cls-5" transform="translate(3172.2 444.48)"/><text id="course_code-12" data-name="course code" class="cls-9" transform="translate(3071.93 640.94)"/><text id="faculty_name-12" data-name="faculty name" class="cls-10" transform="translate(3144.74 322.74)"/></g></g></svg>