<?xml version="1.0" ?><svg xmlns="http://www.w3.org/2000/svg" id="Layer_1" data-name="Layer 1" viewBox="0 0 3736 661"><defs><style>.cls-4{font-size:38px;font-family:BwModelica-Bold, Bw Modelica;font-weight:700;}.cls-10,.cls-4,.cls-5,.cls-9{fill:#231f20;}.cls-5{font-size:33px;font-family:BwModelica-RegularItalic, Bw Modelica;}.cls-10,.cls-5{font-style:italic;}.cls-6{letter-spacing:-0.03em;}.cls-7{letter-spacing:-0.01em;}.cls-8{letter-spacing:-0.02em;}.cls-9{font-size:30px;font-family:BwModelica-ExtraBold, Bw Modelica;font-weight:800;}.cls-10{font-size:28px;font-family:BwModelica-LightItalic, Bw Modelica;font-weight:300;}</style></defs><g id="_13_courses" data-name="13 courses"><g id="_13" data-name="13"><rect class="cls-1" x="69.92" y="2.68" width="200.75" height="56.96" rx="17"/><path class="cls-2" d="M253.67,5.68a14,14,0,0,1,14,14v23a14,14,0,0,1-14,14H86.92a14,14,0,0,1-14-14v-23a14,14,0,0,1,14-14H253.67m0-6H86.92a20,20,0,0,0-20,20v23a20,20,0,0,0,20,20H253.67a20,20,0,0,0,20-20v-23a20,20,0,0,0-20-20Z"/><rect class="cls-3" x="167.52" y="322.32" width="256.05" height="8"/><path class="cls-3" d="M423.57,326.32H397.84a32.67,32.67,0,0,1,7.54-21.21,24,24,0,0,1,18.19-8.79Z"/><path class="cls-3" d="M171,326.32v-30a24,24,0,0,1,18.19,8.79,32.72,32.72,0,0,1,7.53,21.21Z"/><rect class="cls-3" x="37.18" y="193.12" width="267.54" height="6.86" transform="translate(367.5 25.6) rotate(90)"/><text id="course_title" data-name="course title" class="cls-4" transform="translate(192.92 109.06)"/><text id="subtitle" class="cls-5" transform="translate(193.12 234.16)"/><text id="course_code" data-name="course code" class="cls-9" transform="translate(95.35 42.62)"/><text id="faculty_name" data-name="faculty name" class="cls-10" transform="translate(167.08 360.5)"/></g><g id="_13-2" data-name="13"><rect class="cls-1" x="325.92" y="600.36" width="200.75" height="56.96" rx="17"/><path class="cls-2" d="M509.67,603.36a14,14,0,0,1,14,14v23a14,14,0,0,1-14,14H342.92a14,14,0,0,1-14-14v-23a14,14,0,0,1,14-14H509.67m0-6H342.92a20,20,0,0,0-20,20v23a20,20,0,0,0,20,20H509.67a20,20,0,0,0,20-20v-23a20,20,0,0,0-20-20Z"/><rect class="cls-3" x="423.52" y="329.68" width="256.05" height="8"/><path class="cls-3" d="M679.57,333.68H653.84a32.67,32.67,0,0,0,7.54,21.21,24,24,0,0,0,18.19,8.79Z"/><path class="cls-3" d="M427,333.68v30a24,24,0,0,0,18.19-8.79,32.72,32.72,0,0,0,7.53-21.21Z"/><rect class="cls-3" x="293.18" y="460.02" width="267.54" height="6.86" transform="translate(-36.5 890.4) rotate(-90)"/><text id="course_title-2" data-name="course title" class="cls-4" transform="translate(450.92 493.06)"/><text id="subtitle-2" data-name="subtitle" class="cls-5" transform="translate(451.12 444.16)"/><text id="course_code-2" data-name="course code" class="cls-9" transform="translate(350.85 640.62)"/><text id="faculty_name-2" data-name="faculty name" class="cls-10" transform="translate(423.66 322.42)"/></g><g id="_13-3" data-name="13"><rect class="cls-1" x="581.92" y="2.68" width="200.75" height="56.96" rx="17"/><path class="cls-2" d="M765.67,5.68a14,14,0,0,1,14,14v23a14,14,0,0,1-14,14H598.92a14,14,0,0,1-14-14v-23a14,14,0,0,1,14-14H765.67m0-6H598.92a20,20,0,0,0-20,20v23a20,20,0,0,0,20,20H765.67a20,20,0,0,0,20-20v-23a20,20,0,0,0-20-20Z"/><rect class="cls-3" x="679.52" y="322.32" width="256.05" height="8"/><path class="cls-3" d="M935.57,326.32H909.84a32.67,32.67,0,0,1,7.54-21.21,24,24,0,0,1,18.19-8.79Z"/><path class="cls-3" d="M683,326.32v-30a24,24,0,0,1,18.19,8.79,32.72,32.72,0,0,1,7.53,21.21Z"/><rect class="cls-3" x="549.18" y="193.12" width="267.54" height="6.86" transform="translate(879.5 -486.4) rotate(90)"/><text id="course_title-3" data-name="course title" class="cls-4" transform="translate(704.92 109.06)"/><text id="subtitle-3" data-name="subtitle" class="cls-5" transform="translate(705.12 234.16)"/><text id="course_code-3" data-name="course code" class="cls-9" transform="translate(607.35 42.62)"/><text id="faculty_name-3" data-name="faculty name" class="cls-10" transform="translate(679.08 360.5)"/></g><g id="_13-4" data-name="13"><rect class="cls-1" x="837.92" y="600.36" width="200.75" height="56.96" rx="17"/><path class="cls-2" d="M1021.67,603.36a14,14,0,0,1,14,14v23a14,14,0,0,1-14,14H854.92a14,14,0,0,1-14-14v-23a14,14,0,0,1,14-14h166.75m0-6H854.92a20,20,0,0,0-20,20v23a20,20,0,0,0,20,20h166.75a20,20,0,0,0,20-20v-23a20,20,0,0,0-20-20Z"/><rect class="cls-3" x="935.52" y="329.68" width="256.05" height="8"/><path class="cls-3" d="M1191.57,333.68h-25.73a32.67,32.67,0,0,0,7.54,21.21,24,24,0,0,0,18.19,8.79Z"/><path class="cls-3" d="M939,333.68v30a24,24,0,0,0,18.19-8.79,32.72,32.72,0,0,0,7.53-21.21Z"/><rect class="cls-3" x="805.18" y="460.02" width="267.54" height="6.86" transform="translate(475.5 1402.4) rotate(-90)"/><text id="course_title-4" data-name="course title" class="cls-4" transform="translate(962.92 493.06)"/><text id="subtitle-4" data-name="subtitle" class="cls-5" transform="translate(963.12 444.16)"/><text id="course_code-4" data-name="course code" class="cls-9" transform="translate(862.85 640.62)"/><text id="faculty_name-4" data-name="faculty name" class="cls-10" transform="translate(935.66 322.42)"/></g><g id="_13-5" data-name="13"><rect class="cls-1" x="1093.92" y="2.68" width="200.75" height="56.96" rx="17"/><path class="cls-2" d="M1277.67,5.68a14,14,0,0,1,14,14v23a14,14,0,0,1-14,14H1110.92a14,14,0,0,1-14-14v-23a14,14,0,0,1,14-14h166.75m0-6H1110.92a20,20,0,0,0-20,20v23a20,20,0,0,0,20,20h166.75a20,20,0,0,0,20-20v-23a20,20,0,0,0-20-20Z"/><rect class="cls-3" x="1191.52" y="322.32" width="256.05" height="8"/><path class="cls-3" d="M1447.57,326.32h-25.73a32.67,32.67,0,0,1,7.54-21.21,24,24,0,0,1,18.19-8.79Z"/><path class="cls-3" d="M1195,326.32v-30a24,24,0,0,1,18.19,8.79,32.72,32.72,0,0,1,7.53,21.21Z"/><rect class="cls-3" x="1061.18" y="193.12" width="267.54" height="6.86" transform="translate(1391.5 -998.4) rotate(90)"/><text id="course_title-5" data-name="course title" class="cls-4" transform="translate(1216.92 109.06)"/><text id="subtitle-5" data-name="subtitle" class="cls-5" transform="translate(1217.12 234.16)"/><text id="course_code-5" data-name="course code" class="cls-9" transform="translate(1119.35 42.62)"/><text id="faculty_name-5" data-name="faculty name" class="cls-10" transform="translate(1191.08 360.5)"/></g><g id="_13-6" data-name="13"><rect class="cls-1" x="1349.92" y="600.36" width="200.75" height="56.96" rx="17"/><path class="cls-2" d="M1533.67,603.36a14,14,0,0,1,14,14v23a14,14,0,0,1-14,14H1366.92a14,14,0,0,1-14-14v-23a14,14,0,0,1,14-14h166.75m0-6H1366.92a20,20,0,0,0-20,20v23a20,20,0,0,0,20,20h166.75a20,20,0,0,0,20-20v-23a20,20,0,0,0-20-20Z"/><rect class="cls-3" x="1447.52" y="329.68" width="256.05" height="8"/><path class="cls-3" d="M1703.57,333.68h-25.73a32.67,32.67,0,0,0,7.54,21.21,24,24,0,0,0,18.19,8.79Z"/><path class="cls-3" d="M1451,333.68v30a24,24,0,0,0,18.19-8.79,32.72,32.72,0,0,0,7.53-21.21Z"/><rect class="cls-3" x="1317.18" y="460.02" width="267.54" height="6.86" transform="translate(987.5 1914.4) rotate(-90)"/><text id="course_title-6" data-name="course title" class="cls-4" transform="translate(1474.92 493.06)"/><text id="subtitle-6" data-name="subtitle" class="cls-5" transform="translate(1475.12 444.16)"/><text id="course_code-6" data-name="course code" class="cls-9" transform="translate(1374.85 640.62)"/><text id="faculty_name-6" data-name="faculty name" class="cls-10" transform="translate(1447.66 322.42)"/></g><g id="_13-7" data-name="13"><rect class="cls-1" x="1605.92" y="2.68" width="200.75" height="56.96" rx="17"/><path class="cls-2" d="M1789.67,5.68a14,14,0,0,1,14,14v23a14,14,0,0,1-14,14H1622.92a14,14,0,0,1-14-14v-23a14,14,0,0,1,14-14h166.75m0-6H1622.92a20,20,0,0,0-20,20v23a20,20,0,0,0,20,20h166.75a20,20,0,0,0,20-20v-23a20,20,0,0,0-20-20Z"/><rect class="cls-3" x="1703.52" y="322.32" width="256.05" height="8"/><path class="cls-3" d="M1959.57,326.32h-25.73a32.67,32.67,0,0,1,7.54-21.21,24,24,0,0,1,18.19-8.79Z"/><path class="cls-3" d="M1707,326.32v-30a24,24,0,0,1,18.19,8.79,32.72,32.72,0,0,1,7.53,21.21Z"/><rect class="cls-3" x="1573.18" y="193.12" width="267.54" height="6.86" transform="translate(1903.5 -1510.4) rotate(90)"/><text id="course_title-7" data-name="course title" class="cls-4" transform="translate(1728.92 109.06)"/><text id="subtitle-7" data-name="subtitle" class="cls-5" transform="translate(1729.12 234.16)"/><text id="course_code-7" data-name="course code" class="cls-9" transform="translate(1631.35 42.62)"/><text id="faculty_name-7" data-name="faculty name" class="cls-10" transform="translate(1703.08 360.5)"/></g><g id="_13-8" data-name="13"><rect class="cls-1" x="1861.92" y="600.36" width="200.75" height="56.96" rx="17"/><path class="cls-2" d="M2045.67,603.36a14,14,0,0,1,14,14v23a14,14,0,0,1-14,14H1878.92a14,14,0,0,1-14-14v-23a14,14,0,0,1,14-14h166.75m0-6H1878.92a20,20,0,0,0-20,20v23a20,20,0,0,0,20,20h166.75a20,20,0,0,0,20-20v-23a20,20,0,0,0-20-20Z"/><rect class="cls-3" x="1959.52" y="329.68" width="256.05" height="8"/><path class="cls-3" d="M2215.57,333.68h-25.73a32.67,32.67,0,0,0,7.54,21.21,24,24,0,0,0,18.19,8.79Z"/><path class="cls-3" d="M1963,333.68v30a24,24,0,0,0,18.19-8.79,32.72,32.72,0,0,0,7.53-21.21Z"/><rect class="cls-3" x="1829.18" y="460.02" width="267.54" height="6.86" transform="translate(1499.5 2426.4) rotate(-90)"/><text id="course_title-8" data-name="course title" class="cls-4" transform="translate(1986.92 493.06)"/><text id="subtitle-8" data-name="subtitle" class="cls-5" transform="translate(1987.12 444.16)"/><text id="course_code-8" data-name="course code" class="cls-9" transform="translate(1886.85 640.62)"/><text id="faculty_name-8" data-name="faculty name" class="cls-10" transform="translate(1959.66 322.42)"/></g><g id="_13-9" data-name="13"><rect class="cls-1" x="2117.92" y="2.68" width="200.75" height="56.96" rx="17"/><path class="cls-2" d="M2301.67,5.68a14,14,0,0,1,14,14v23a14,14,0,0,1-14,14H2134.92a14,14,0,0,1-14-14v-23a14,14,0,0,1,14-14h166.75m0-6H2134.92a20,20,0,0,0-20,20v23a20,20,0,0,0,20,20h166.75a20,20,0,0,0,20-20v-23a20,20,0,0,0-20-20Z"/><rect class="cls-3" x="2215.52" y="322.32" width="256.05" height="8"/><path class="cls-3" d="M2471.57,326.32h-25.73a32.67,32.67,0,0,1,7.54-21.21,24,24,0,0,1,18.19-8.79Z"/><path class="cls-3" d="M2219,326.32v-30a24,24,0,0,1,18.19,8.79,32.72,32.72,0,0,1,7.53,21.21Z"/><rect class="cls-3" x="2085.18" y="193.12" width="267.54" height="6.86" transform="translate(2415.5 -2022.4) rotate(90)"/><text id="course_title-9" data-name="course title" class="cls-4" transform="translate(2240.92 109.06)"/><text id="subtitle-9" data-name="subtitle" class="cls-5" transform="translate(2241.12 234.16)"/><text id="course_code-9" data-name="course code" class="cls-9" transform="translate(2143.35 42.62)"/><text id="faculty_name-9" data-name="faculty name" class="cls-10" transform="translate(2215.08 360.5)"/></g><g id="_13-10" data-name="13"><rect class="cls-1" x="2373.92" y="600.36" width="200.75" height="56.96" rx="17"/><path class="cls-2" d="M2557.67,603.36a14,14,0,0,1,14,14v23a14,14,0,0,1-14,14H2390.92a14,14,0,0,1-14-14v-23a14,14,0,0,1,14-14h166.75m0-6H2390.92a20,20,0,0,0-20,20v23a20,20,0,0,0,20,20h166.75a20,20,0,0,0,20-20v-23a20,20,0,0,0-20-20Z"/><rect class="cls-3" x="2471.52" y="329.68" width="256.05" height="8"/><path class="cls-3" d="M2727.57,333.68h-25.73a32.67,32.67,0,0,0,7.54,21.21,24,24,0,0,0,18.19,8.79Z"/><path class="cls-3" d="M2475,333.68v30a24,24,0,0,0,18.19-8.79,32.72,32.72,0,0,0,7.53-21.21Z"/><rect class="cls-3" x="2341.18" y="460.02" width="267.54" height="6.86" transform="translate(2011.5 2938.4) rotate(-90)"/><text id="course_title-10" data-name="course title" class="cls-4" transform="translate(2498.92 493.06)"/><text id="subtitle-10" data-name="subtitle" class="cls-5" transform="translate(2499.12 444.16)"/><text id="course_code-10" data-name="course code" class="cls-9" transform="translate(2398.85 640.62)"/><text id="faculty_name-10" data-name="faculty name" class="cls-10" transform="translate(2471.66 322.42)"/></g><g id="_13-11" data-name="13"><rect class="cls-1" x="2629.92" y="2.68" width="200.75" height="56.96" rx="17"/><path class="cls-2" d="M2813.67,5.68a14,14,0,0,1,14,14v23a14,14,0,0,1-14,14H2646.92a14,14,0,0,1-14-14v-23a14,14,0,0,1,14-14h166.75m0-6H2646.92a20,20,0,0,0-20,20v23a20,20,0,0,0,20,20h166.75a20,20,0,0,0,20-20v-23a20,20,0,0,0-20-20Z"/><rect class="cls-3" x="2727.52" y="322.32" width="256.05" height="8"/><path class="cls-3" d="M2983.57,326.32h-25.73a32.67,32.67,0,0,1,7.54-21.21,24,24,0,0,1,18.19-8.79Z"/><path class="cls-3" d="M2731,326.32v-30a24,24,0,0,1,18.19,8.79,32.72,32.72,0,0,1,7.53,21.21Z"/><rect class="cls-3" x="2597.18" y="193.12" width="267.54" height="6.86" transform="translate(2927.5 -2534.4) rotate(90)"/><text id="course_title-11" data-name="course title" class="cls-4" transform="translate(2752.92 109.06)"/><text id="subtitle-11" data-name="subtitle" class="cls-5" transform="translate(2753.12 234.16)"/><text id="course_code-11" data-name="course code" class="cls-9" transform="translate(2655.35 42.62)"/><text id="faculty_name-11" data-name="faculty name" class="cls-10" transform="translate(2727.08 360.5)"/></g><g id="_13-12" data-name="13"><rect class="cls-1" x="2885.92" y="600.36" width="200.75" height="56.96" rx="17"/><path class="cls-2" d="M3069.67,603.36a14,14,0,0,1,14,14v23a14,14,0,0,1-14,14H2902.92a14,14,0,0,1-14-14v-23a14,14,0,0,1,14-14h166.75m0-6H2902.92a20,20,0,0,0-20,20v23a20,20,0,0,0,20,20h166.75a20,20,0,0,0,20-20v-23a20,20,0,0,0-20-20Z"/><rect class="cls-3" x="2983.52" y="329.68" width="256.05" height="8"/><path class="cls-3" d="M3239.57,333.68h-25.73a32.67,32.67,0,0,0,7.54,21.21,24,24,0,0,0,18.19,8.79Z"/><path class="cls-3" d="M2987,333.68v30a24,24,0,0,0,18.19-8.79,32.72,32.72,0,0,0,7.53-21.21Z"/><rect class="cls-3" x="2853.18" y="460.02" width="267.54" height="6.86" transform="translate(2523.5 3450.4) rotate(-90)"/><text id="course_title-12" data-name="course title" class="cls-4" transform="translate(3010.92 493.06)"/><text id="subtitle-12" data-name="subtitle" class="cls-5" transform="translate(3011.12 444.16)"/><text id="course_code-12" data-name="course code" class="cls-9" transform="translate(2910.86 640.62)"/><text id="faculty_name-12" data-name="faculty name" class="cls-10" transform="translate(2983.66 322.42)"/></g><g id="_13-13" data-name="13"><rect class="cls-1" x="3141.92" y="2.68" width="200.75" height="56.96" rx="17"/><path class="cls-2" d="M3325.67,5.68a14,14,0,0,1,14,14v23a14,14,0,0,1-14,14H3158.92a14,14,0,0,1-14-14v-23a14,14,0,0,1,14-14h166.75m0-6H3158.92a20,20,0,0,0-20,20v23a20,20,0,0,0,20,20h166.75a20,20,0,0,0,20-20v-23a20,20,0,0,0-20-20Z"/><rect class="cls-3" x="3239.52" y="322.32" width="256.05" height="8"/><path class="cls-3" d="M3495.57,326.32h-25.73a32.67,32.67,0,0,1,7.54-21.21,24,24,0,0,1,18.19-8.79Z"/><path class="cls-3" d="M3243,326.32v-30a24,24,0,0,1,18.19,8.79,32.72,32.72,0,0,1,7.53,21.21Z"/><rect class="cls-3" x="3109.18" y="193.12" width="267.54" height="6.86" transform="translate(3439.5 -3046.4) rotate(90)"/><text id="course_title-13" data-name="course title" class="cls-4" transform="translate(3264.92 109.06)"/><text id="subtitle-13" data-name="subtitle" class="cls-5" transform="translate(3265.12 234.16)"/><text id="course_code-13" data-name="course code" class="cls-9" transform="translate(3167.35 42.62)"/><text id="faculty_name-13" data-name="faculty name" class="cls-10" transform="translate(3239.08 360.5)"/></g></g></svg>