<?xml version="1.0" ?><svg xmlns="http://www.w3.org/2000/svg" id="Layer_1" data-name="Layer 1" viewBox="0 0 3736 661"><defs><style>.cls-4{font-size:38px;font-family:BwModelica-Bold, Bw Modelica;font-weight:700;}.cls-10,.cls-4,.cls-5,.cls-9{fill:#231f20;}.cls-5{font-size:33px;font-family:BwModelica-RegularItalic, Bw Modelica;}.cls-10,.cls-5{font-style:italic;}.cls-6{letter-spacing:-0.03em;}.cls-7{letter-spacing:-0.01em;}.cls-8{letter-spacing:-0.02em;}.cls-9{font-size:30px;font-family:BwModelica-ExtraBold, Bw Modelica;font-weight:800;}.cls-10{font-size:22px;font-family:BwModelica-LightItalic, Bw Modelica;font-weight:300;}</style></defs><g id="_14_courses" data-name="14 courses"><g id="_13" data-name="13"><rect class="cls-1" x="93.82" y="2.89" width="200.75" height="56.96" rx="17"/><path class="cls-2" d="M277.57,5.89a14,14,0,0,1,14,14v23a14,14,0,0,1-14,14H110.82a14,14,0,0,1-14-14v-23a14,14,0,0,1,14-14H277.57m0-6H110.82a20,20,0,0,0-20,20v23a20,20,0,0,0,20,20H277.57a20,20,0,0,0,20-20v-23a20,20,0,0,0-20-20Z"/><rect class="cls-3" x="191.42" y="322.54" width="234.58" height="8"/><path class="cls-3" d="M426,328H400.27a32.75,32.75,0,0,1,7.54-21.22A24,24,0,0,1,426,298Z"/><path class="cls-3" d="M194.85,326.54v-30A24,24,0,0,1,213,305.32a32.74,32.74,0,0,1,7.53,21.22Z"/><rect class="cls-3" x="61.08" y="193.34" width="267.54" height="6.86" transform="translate(391.61 1.92) rotate(90)"/><text id="course_title" data-name="course title" class="cls-4" transform="translate(216.82 109.27)"/><text id="subtitle" class="cls-5" transform="translate(217.02 234.37)"/><text id="course_code" data-name="course code" class="cls-9" transform="translate(119.25 42.83)"/><text id="faculty_name" data-name="faculty name" class="cls-10" transform="translate(190.98 356.03)"/></g><g id="_13-2" data-name="13"><rect class="cls-1" x="328.47" y="601.08" width="200.75" height="56.96" rx="17"/><path class="cls-2" d="M512.21,604.08a14,14,0,0,1,14,14v23a14,14,0,0,1-14,14H345.47a14,14,0,0,1-14-14v-23a14,14,0,0,1,14-14H512.21m0-6H345.47a20,20,0,0,0-20,20v23a20,20,0,0,0,20,20H512.21a20,20,0,0,0,20-20v-23a20,20,0,0,0-20-20Z"/><rect class="cls-3" x="426.06" y="330.39" width="234.58" height="8"/><path class="cls-3" d="M660.64,334.39H634.92a32.72,32.72,0,0,0,7.53,21.21,24,24,0,0,0,18.19,8.79Z"/><path class="cls-3" d="M429.49,334.39v30a24,24,0,0,0,18.19-8.79,32.67,32.67,0,0,0,7.54-21.21Z"/><rect class="cls-3" x="295.72" y="460.73" width="267.54" height="6.86" transform="translate(-34.67 893.65) rotate(-90)"/><text id="course_title-2" data-name="course title" class="cls-4" transform="translate(453.47 493.77)"/><text id="subtitle-2" data-name="subtitle" class="cls-5" transform="translate(453.66 444.87)"/><text id="course_code-2" data-name="course code" class="cls-9" transform="translate(353.4 641.33)"/><text id="faculty_name-2" data-name="faculty name" class="cls-10" transform="translate(426.2 318.45)"/></g><g id="_13-3" data-name="13"><rect class="cls-1" x="562.36" y="2.82" width="200.75" height="56.96" rx="17"/><path class="cls-2" d="M746.1,5.82a14,14,0,0,1,14,14v23a14,14,0,0,1-14,14H579.36a14,14,0,0,1-14-14v-23a14,14,0,0,1,14-14H746.1m0-6H579.36a20,20,0,0,0-20,20v23a20,20,0,0,0,20,20H746.1a20,20,0,0,0,20-20v-23a20,20,0,0,0-20-20Z"/><rect class="cls-3" x="659.95" y="322.46" width="234.58" height="8"/><path class="cls-3" d="M894.53,327.9H868.81a32.72,32.72,0,0,1,7.53-21.21,24.06,24.06,0,0,1,18.19-8.79Z"/><path class="cls-3" d="M663.38,326.46v-30a24,24,0,0,1,18.19,8.79,32.72,32.72,0,0,1,7.54,21.21Z"/><rect class="cls-3" x="529.61" y="193.26" width="267.54" height="6.86" transform="translate(860.08 -466.69) rotate(90)"/><text id="course_title-3" data-name="course title" class="cls-4" transform="translate(685.35 109.2)"/><text id="subtitle-3" data-name="subtitle" class="cls-5" transform="translate(685.55 234.3)"/><text id="course_code-3" data-name="course code" class="cls-9" transform="translate(587.79 42.76)"/><text id="faculty_name-3" data-name="faculty name" class="cls-10" transform="translate(659.51 355.96)"/></g><g id="_13-4" data-name="13"><rect class="cls-1" x="797" y="601" width="200.75" height="56.96" rx="17"/><path class="cls-2" d="M980.75,604a14,14,0,0,1,14,14v23a14,14,0,0,1-14,14H814a14,14,0,0,1-14-14V618a14,14,0,0,1,14-14H980.75m0-6H814a20,20,0,0,0-20,20v23a20,20,0,0,0,20,20H980.75a20,20,0,0,0,20-20V618a20,20,0,0,0-20-20Z"/><rect class="cls-3" x="894.6" y="330.32" width="234.58" height="8"/><path class="cls-3" d="M1129.18,334.32h-25.72a32.74,32.74,0,0,0,7.53,21.21,24,24,0,0,0,18.19,8.79Z"/><path class="cls-3" d="M898,334.32v30a24,24,0,0,0,18.19-8.79,32.74,32.74,0,0,0,7.53-21.21Z"/><rect class="cls-3" x="764.26" y="460.66" width="267.54" height="6.86" transform="translate(433.94 1362.12) rotate(-90)"/><text id="course_title-4" data-name="course title" class="cls-4" transform="translate(922 493.7)"/><text id="subtitle-4" data-name="subtitle" class="cls-5" transform="translate(922.2 444.8)"/><text id="course_code-4" data-name="course code" class="cls-9" transform="translate(821.94 641.26)"/><text id="faculty_name-4" data-name="faculty name" class="cls-10" transform="translate(894.74 318.38)"/></g><g id="_13-5" data-name="13"><rect class="cls-1" x="1031.65" y="2.85" width="200.75" height="56.96" rx="17"/><path class="cls-2" d="M1215.4,5.85a14,14,0,0,1,14,14v23a14,14,0,0,1-14,14H1048.65a14,14,0,0,1-14-14v-23a14,14,0,0,1,14-14H1215.4m0-6H1048.65a20,20,0,0,0-20,20v23a20,20,0,0,0,20,20H1215.4a20,20,0,0,0,20-20v-23a20,20,0,0,0-20-20Z"/><rect class="cls-3" x="1129.25" y="322.5" width="234.58" height="8"/><path class="cls-3" d="M1363.83,327.94H1338.1a32.72,32.72,0,0,1,7.54-21.21,24,24,0,0,1,18.19-8.79Z"/><path class="cls-3" d="M1132.68,326.5v-30a24,24,0,0,1,18.19,8.79,32.72,32.72,0,0,1,7.53,21.21Z"/><rect class="cls-3" x="998.91" y="193.3" width="267.54" height="6.86" transform="translate(1329.41 -935.95) rotate(90)"/><text id="course_title-5" data-name="course title" class="cls-4" transform="translate(1154.65 109.23)"/><text id="subtitle-5" data-name="subtitle" class="cls-5" transform="translate(1154.85 234.33)"/><text id="course_code-5" data-name="course code" class="cls-9" transform="translate(1057.08 42.79)"/><text id="faculty_name-5" data-name="faculty name" class="cls-10" transform="translate(1128.81 355.99)"/></g><g id="_13-6" data-name="13"><rect class="cls-1" x="1266.3" y="601.04" width="200.75" height="56.96" rx="17"/><path class="cls-2" d="M1450,604a14,14,0,0,1,14,14v23a14,14,0,0,1-14,14H1283.3a14,14,0,0,1-14-14V618a14,14,0,0,1,14-14H1450m0-6H1283.3a20,20,0,0,0-20,20v23a20,20,0,0,0,20,20H1450a20,20,0,0,0,20-20V618a20,20,0,0,0-20-20Z"/><rect class="cls-3" x="1363.89" y="330.35" width="234.58" height="8"/><path class="cls-3" d="M1598.47,334.35h-25.72a32.7,32.7,0,0,0,7.54,21.22,24,24,0,0,0,18.18,8.78Z"/><path class="cls-3" d="M1367.32,334.35v30a24,24,0,0,0,18.19-8.78,32.7,32.7,0,0,0,7.54-21.22Z"/><rect class="cls-3" x="1233.55" y="460.69" width="267.54" height="6.86" transform="translate(903.2 1831.45) rotate(-90)"/><text id="course_title-6" data-name="course title" class="cls-4" transform="translate(1391.3 493.73)"/><text id="subtitle-6" data-name="subtitle" class="cls-5" transform="translate(1391.49 444.83)"/><text id="course_code-6" data-name="course code" class="cls-9" transform="translate(1291.23 641.29)"/><text id="faculty_name-6" data-name="faculty name" class="cls-10" transform="translate(1364.03 318.41)"/></g><g id="_13-7" data-name="13"><rect class="cls-1" x="1500.19" y="2.78" width="200.75" height="56.96" rx="17"/><path class="cls-2" d="M1683.93,5.78a14,14,0,0,1,14,14v23a14,14,0,0,1-14,14H1517.19a14,14,0,0,1-14-14v-23a14,14,0,0,1,14-14h166.74m0-6H1517.19a20,20,0,0,0-20,20v23a20,20,0,0,0,20,20h166.74a20,20,0,0,0,20-20v-23a20,20,0,0,0-20-20Z"/><rect class="cls-3" x="1597.78" y="322.43" width="234.58" height="8"/><path class="cls-3" d="M1832.36,327.87h-25.72a32.74,32.74,0,0,1,7.53-21.22,24,24,0,0,1,18.19-8.78Z"/><path class="cls-3" d="M1601.21,326.43v-30a24,24,0,0,1,18.19,8.78,32.7,32.7,0,0,1,7.54,21.22Z"/><rect class="cls-3" x="1467.44" y="193.23" width="267.54" height="6.86" transform="translate(1797.87 -1404.56) rotate(90)"/><text id="course_title-7" data-name="course title" class="cls-4" transform="translate(1623.19 109.16)"/><text id="subtitle-7" data-name="subtitle" class="cls-5" transform="translate(1623.38 234.26)"/><text id="course_code-7" data-name="course code" class="cls-9" transform="translate(1525.62 42.72)"/><text id="faculty_name-7" data-name="faculty name" class="cls-10" transform="translate(1597.34 355.92)"/></g><g id="_13-8" data-name="13"><rect class="cls-1" x="1734.83" y="600.97" width="200.75" height="56.96" rx="17"/><path class="cls-2" d="M1918.58,604a14,14,0,0,1,14,14v23a14,14,0,0,1-14,14H1751.83a14,14,0,0,1-14-14V618a14,14,0,0,1,14-14h166.75m0-6H1751.83a20,20,0,0,0-20,20v23a20,20,0,0,0,20,20h166.75a20,20,0,0,0,20-20V618a20,20,0,0,0-20-20Z"/><rect class="cls-3" x="1832.43" y="330.28" width="234.58" height="8"/><path class="cls-3" d="M2067,334.28h-25.72a32.72,32.72,0,0,0,7.53,21.21,24,24,0,0,0,18.19,8.79Z"/><path class="cls-3" d="M1835.86,334.28v30a24,24,0,0,0,18.19-8.79,32.72,32.72,0,0,0,7.53-21.21Z"/><rect class="cls-3" x="1702.09" y="460.62" width="267.54" height="6.86" transform="translate(1371.81 2299.91) rotate(-90)"/><text id="course_title-8" data-name="course title" class="cls-4" transform="translate(1859.83 493.66)"/><text id="subtitle-8" data-name="subtitle" class="cls-5" transform="translate(1860.03 444.76)"/><text id="course_code-8" data-name="course code" class="cls-9" transform="translate(1759.77 641.22)"/><text id="faculty_name-8" data-name="faculty name" class="cls-10" transform="translate(1832.57 318.34)"/></g><g id="_13-9" data-name="13"><rect class="cls-1" x="1969.53" y="2.89" width="200.75" height="56.96" rx="17"/><path class="cls-2" d="M2153.28,5.89a14,14,0,0,1,14,14v23a14,14,0,0,1-14,14H1986.53a14,14,0,0,1-14-14v-23a14,14,0,0,1,14-14h166.75m0-6H1986.53a20,20,0,0,0-20,20v23a20,20,0,0,0,20,20h166.75a20,20,0,0,0,20-20v-23a20,20,0,0,0-20-20Z"/><rect class="cls-3" x="2067.13" y="322.54" width="234.58" height="8"/><path class="cls-3" d="M2301.71,328H2276a32.75,32.75,0,0,1,7.54-21.22,24,24,0,0,1,18.19-8.78Z"/><path class="cls-3" d="M2070.56,326.54v-30a24,24,0,0,1,18.19,8.78,32.74,32.74,0,0,1,7.53,21.22Z"/><rect class="cls-3" x="1936.79" y="193.34" width="267.54" height="6.86" transform="translate(2267.32 -1873.79) rotate(90)"/><text id="course_title-9" data-name="course title" class="cls-4" transform="translate(2092.53 109.27)"/><text id="subtitle-9" data-name="subtitle" class="cls-5" transform="translate(2092.73 234.37)"/><text id="course_code-9" data-name="course code" class="cls-9" transform="translate(1994.96 42.83)"/><text id="faculty_name-9" data-name="faculty name" class="cls-10" transform="translate(2066.69 356.03)"/></g><g id="_13-10" data-name="13"><rect class="cls-1" x="2204.18" y="601.08" width="200.75" height="56.96" rx="17"/><path class="cls-2" d="M2387.92,604.08a14,14,0,0,1,14,14v23a14,14,0,0,1-14,14H2221.18a14,14,0,0,1-14-14v-23a14,14,0,0,1,14-14h166.74m0-6H2221.18a20,20,0,0,0-20,20v23a20,20,0,0,0,20,20h166.74a20,20,0,0,0,20-20v-23a20,20,0,0,0-20-20Z"/><rect class="cls-3" x="2301.77" y="330.39" width="234.58" height="8"/><path class="cls-3" d="M2536.35,334.39h-25.72a32.67,32.67,0,0,0,7.54,21.21,24,24,0,0,0,18.18,8.79Z"/><path class="cls-3" d="M2305.2,334.39v30a24,24,0,0,0,18.19-8.79,32.67,32.67,0,0,0,7.54-21.21Z"/><rect class="cls-3" x="2171.43" y="460.73" width="267.54" height="6.86" transform="translate(1841.04 2769.36) rotate(-90)"/><text id="course_title-10" data-name="course title" class="cls-4" transform="translate(2329.18 493.77)"/><text id="subtitle-10" data-name="subtitle" class="cls-5" transform="translate(2329.37 444.87)"/><text id="course_code-10" data-name="course code" class="cls-9" transform="translate(2229.11 641.33)"/><text id="faculty_name-10" data-name="faculty name" class="cls-10" transform="translate(2301.91 318.45)"/></g><g id="_13-11" data-name="13"><rect class="cls-1" x="2438.07" y="2.82" width="200.75" height="56.96" rx="17"/><path class="cls-2" d="M2621.81,5.82a14,14,0,0,1,14,14v23a14,14,0,0,1-14,14H2455.07a14,14,0,0,1-14-14v-23a14,14,0,0,1,14-14h166.74m0-6H2455.07a20,20,0,0,0-20,20v23a20,20,0,0,0,20,20h166.74a20,20,0,0,0,20-20v-23a20,20,0,0,0-20-20Z"/><rect class="cls-3" x="2535.66" y="322.46" width="234.58" height="8"/><path class="cls-3" d="M2770.24,327.9h-25.72a32.72,32.72,0,0,1,7.53-21.21,24.06,24.06,0,0,1,18.19-8.79Z"/><path class="cls-3" d="M2539.09,326.46v-30a24,24,0,0,1,18.19,8.79,32.67,32.67,0,0,1,7.54,21.21Z"/><rect class="cls-3" x="2405.32" y="193.26" width="267.54" height="6.86" transform="translate(2735.79 -2342.4) rotate(90)"/><text id="course_title-11" data-name="course title" class="cls-4" transform="translate(2561.07 109.2)"/><text id="subtitle-11" data-name="subtitle" class="cls-5" transform="translate(2561.26 234.3)"/><text id="course_code-11" data-name="course code" class="cls-9" transform="translate(2463.5 42.76)"/><text id="faculty_name-11" data-name="faculty name" class="cls-10" transform="translate(2535.22 355.96)"/></g><g id="_13-12" data-name="13"><rect class="cls-1" x="2672.71" y="601" width="200.75" height="56.96" rx="17"/><path class="cls-2" d="M2856.46,604a14,14,0,0,1,14,14v23a14,14,0,0,1-14,14H2689.71a14,14,0,0,1-14-14V618a14,14,0,0,1,14-14h166.75m0-6H2689.71a20,20,0,0,0-20,20v23a20,20,0,0,0,20,20h166.75a20,20,0,0,0,20-20V618a20,20,0,0,0-20-20Z"/><rect class="cls-3" x="2770.31" y="330.32" width="234.58" height="8"/><path class="cls-3" d="M3004.89,334.32h-25.72a32.74,32.74,0,0,0,7.53,21.21,24,24,0,0,0,18.19,8.79Z"/><path class="cls-3" d="M2773.74,334.32v30a24,24,0,0,0,18.19-8.79,32.74,32.74,0,0,0,7.53-21.21Z"/><rect class="cls-3" x="2639.97" y="460.66" width="267.54" height="6.86" transform="translate(2309.66 3237.83) rotate(-90)"/><text id="course_title-12" data-name="course title" class="cls-4" transform="translate(2797.71 493.7)"/><text id="subtitle-12" data-name="subtitle" class="cls-5" transform="translate(2797.91 444.8)"/><text id="course_code-12" data-name="course code" class="cls-9" transform="translate(2697.65 641.26)"/><text id="faculty_name-12" data-name="faculty name" class="cls-10" transform="translate(2770.45 318.38)"/></g><g id="_13-13" data-name="13"><rect class="cls-1" x="2907.36" y="2.85" width="200.75" height="56.96" rx="17"/><path class="cls-2" d="M3091.11,5.85a14,14,0,0,1,14,14v23a14,14,0,0,1-14,14H2924.36a14,14,0,0,1-14-14v-23a14,14,0,0,1,14-14h166.75m0-6H2924.36a20,20,0,0,0-20,20v23a20,20,0,0,0,20,20h166.75a20,20,0,0,0,20-20v-23a20,20,0,0,0-20-20Z"/><rect class="cls-3" x="3004.96" y="322.5" width="234.58" height="8"/><path class="cls-3" d="M3239.54,327.94h-25.73a32.72,32.72,0,0,1,7.54-21.21,24,24,0,0,1,18.19-8.79Z"/><path class="cls-3" d="M3008.39,326.5v-30a24,24,0,0,1,18.19,8.79,32.72,32.72,0,0,1,7.53,21.21Z"/><rect class="cls-3" x="2874.62" y="193.3" width="267.54" height="6.86" transform="translate(3205.12 -2811.66) rotate(90)"/><text id="course_title-13" data-name="course title" class="cls-4" transform="translate(3030.36 109.23)"/><text id="subtitle-13" data-name="subtitle" class="cls-5" transform="translate(3030.56 234.33)"/><text id="course_code-13" data-name="course code" class="cls-9" transform="translate(2932.79 42.79)"/><text id="faculty_name-13" data-name="faculty name" class="cls-10" transform="translate(3004.52 355.99)"/></g><g id="_13-14" data-name="13"><rect class="cls-1" x="3142.01" y="601.04" width="200.75" height="56.96" rx="17"/><path class="cls-2" d="M3325.75,604a14,14,0,0,1,14,14v23a14,14,0,0,1-14,14H3159a14,14,0,0,1-14-14V618a14,14,0,0,1,14-14h166.74m0-6H3159a20,20,0,0,0-20,20v23a20,20,0,0,0,20,20h166.74a20,20,0,0,0,20-20V618a20,20,0,0,0-20-20Z"/><rect class="cls-3" x="3239.61" y="330.35" width="234.58" height="8"/><path class="cls-3" d="M3474.19,334.35h-25.73a32.7,32.7,0,0,0,7.54,21.22,24,24,0,0,0,18.19,8.78Z"/><path class="cls-3" d="M3243,334.35v30a24,24,0,0,0,18.19-8.78,32.7,32.7,0,0,0,7.54-21.22Z"/><rect class="cls-3" x="3109.26" y="460.69" width="267.54" height="6.86" transform="translate(2778.91 3707.16) rotate(-90)"/><text id="course_title-14" data-name="course title" class="cls-4" transform="translate(3267.01 493.73)"/><text id="subtitle-14" data-name="subtitle" class="cls-5" transform="translate(3267.2 444.83)"/><text id="course_code-14" data-name="course code" class="cls-9" transform="translate(3166.94 641.29)"/><text id="faculty_name-14" data-name="faculty name" class="cls-10" transform="translate(3239.74 318.41)"/></g></g></svg>