<?xml version="1.0" ?><svg xmlns="http://www.w3.org/2000/svg" id="Layer_1" data-name="Layer 1" viewBox="0 0 3736 661"><defs><style>.cls-4{font-size:38px;font-family:BwModelica-Bold, Bw Modelica;font-weight:700;}.cls-10,.cls-4,.cls-5,.cls-9{fill:#231f20;}.cls-5{font-size:33px;font-family:BwModelica-RegularItalic, Bw Modelica;}.cls-10,.cls-5{font-style:italic;}.cls-6{letter-spacing:-0.03em;}.cls-7{letter-spacing:-0.01em;}.cls-8{letter-spacing:-0.02em;}.cls-9{font-size:30px;font-family:BwModelica-ExtraBold, Bw Modelica;font-weight:800;}.cls-10{font-size:22px;font-family:BwModelica-LightItalic, Bw Modelica;font-weight:300;}</style></defs><g id="_15_courses" data-name="15 courses"><g id="_13" data-name="13"><rect class="cls-1" x="2.46" y="3" width="200.75" height="56.96" rx="17"/><path class="cls-2" d="M186.21,6a14,14,0,0,1,14,14V43a14,14,0,0,1-14,14H19.46a14,14,0,0,1-14-14V20a14,14,0,0,1,14-14H186.21m0-6H19.46a20,20,0,0,0-20,20V43a20,20,0,0,0,20,20H186.21a20,20,0,0,0,20-20V20a20,20,0,0,0-20-20Z"/><rect class="cls-3" x="100.06" y="322.65" width="234.58" height="8"/><path class="cls-3" d="M334.64,328.09H308.91a32.75,32.75,0,0,1,7.54-21.22,24,24,0,0,1,18.19-8.78Z"/><path class="cls-3" d="M103.49,326.65v-30a24,24,0,0,1,18.19,8.78,32.74,32.74,0,0,1,7.53,21.22Z"/><rect class="cls-3" x="-30.28" y="193.45" width="267.54" height="6.86" transform="translate(300.36 93.39) rotate(90)"/><text id="course_title" data-name="course title" class="cls-4" transform="translate(125.46 109.38)"/><text id="subtitle" class="cls-5" transform="translate(125.66 234.48)"/><text id="course_code" data-name="course code" class="cls-9" transform="translate(27.89 42.94)"/><text id="faculty_name" data-name="faculty name" class="cls-10" transform="translate(99.62 356.14)"/></g><g id="_13-2" data-name="13"><rect class="cls-1" x="237.11" y="601.19" width="200.75" height="56.96" rx="17"/><path class="cls-2" d="M420.85,604.19a14,14,0,0,1,14,14v23a14,14,0,0,1-14,14H254.11a14,14,0,0,1-14-14v-23a14,14,0,0,1,14-14H420.85m0-6H254.11a20,20,0,0,0-20,20v23a20,20,0,0,0,20,20H420.85a20,20,0,0,0,20-20v-23a20,20,0,0,0-20-20Z"/><rect class="cls-3" x="334.7" y="330.5" width="234.58" height="8"/><path class="cls-3" d="M569.28,334.5H543.56a32.72,32.72,0,0,0,7.53,21.21,24,24,0,0,0,18.19,8.79Z"/><path class="cls-3" d="M338.13,334.5v30a24,24,0,0,0,18.19-8.79,32.67,32.67,0,0,0,7.54-21.21Z"/><rect class="cls-3" x="204.36" y="460.84" width="267.54" height="6.86" transform="translate(-126.14 802.4) rotate(-90)"/><text id="course_title-2" data-name="course title" class="cls-4" transform="translate(362.11 493.88)"/><text id="subtitle-2" data-name="subtitle" class="cls-5" transform="translate(362.3 444.98)"/><text id="course_code-2" data-name="course code" class="cls-9" transform="translate(262.04 641.44)"/><text id="faculty_name-2" data-name="faculty name" class="cls-10" transform="translate(334.84 318.56)"/></g><g id="_13-3" data-name="13"><rect class="cls-1" x="471" y="2.93" width="200.75" height="56.96" rx="17"/><path class="cls-2" d="M654.74,5.93a14,14,0,0,1,14,14v23a14,14,0,0,1-14,14H488a14,14,0,0,1-14-14v-23a14,14,0,0,1,14-14H654.74m0-6H488a20,20,0,0,0-20,20v23a20,20,0,0,0,20,20H654.74a20,20,0,0,0,20-20v-23a20,20,0,0,0-20-20Z"/><rect class="cls-3" x="568.59" y="322.57" width="234.58" height="8"/><path class="cls-3" d="M803.17,328H777.45A32.72,32.72,0,0,1,785,306.8,24.06,24.06,0,0,1,803.17,298Z"/><path class="cls-3" d="M572,326.57v-30a24,24,0,0,1,18.19,8.79,32.72,32.72,0,0,1,7.54,21.21Z"/><rect class="cls-3" x="438.25" y="193.37" width="267.54" height="6.86" transform="translate(768.83 -375.22) rotate(90)"/><text id="course_title-3" data-name="course title" class="cls-4" transform="translate(594 109.31)"/><text id="subtitle-3" data-name="subtitle" class="cls-5" transform="translate(594.19 234.41)"/><text id="course_code-3" data-name="course code" class="cls-9" transform="translate(496.43 42.87)"/><text id="faculty_name-3" data-name="faculty name" class="cls-10" transform="translate(568.15 356.07)"/></g><g id="_13-4" data-name="13"><rect class="cls-1" x="705.64" y="601.11" width="200.75" height="56.96" rx="17"/><path class="cls-2" d="M889.39,604.11a14,14,0,0,1,14,14v23a14,14,0,0,1-14,14H722.64a14,14,0,0,1-14-14v-23a14,14,0,0,1,14-14H889.39m0-6H722.64a20,20,0,0,0-20,20v23a20,20,0,0,0,20,20H889.39a20,20,0,0,0,20-20v-23a20,20,0,0,0-20-20Z"/><rect class="cls-3" x="803.24" y="330.43" width="234.58" height="8"/><path class="cls-3" d="M1037.82,334.43H1012.1a32.72,32.72,0,0,0,7.53,21.21,24,24,0,0,0,18.19,8.79Z"/><path class="cls-3" d="M806.67,334.43v30a24,24,0,0,0,18.19-8.79,32.72,32.72,0,0,0,7.53-21.21Z"/><rect class="cls-3" x="672.9" y="460.77" width="267.54" height="6.86" transform="translate(342.47 1270.87) rotate(-90)"/><text id="course_title-4" data-name="course title" class="cls-4" transform="translate(830.64 493.81)"/><text id="subtitle-4" data-name="subtitle" class="cls-5" transform="translate(830.84 444.91)"/><text id="course_code-4" data-name="course code" class="cls-9" transform="translate(730.58 641.37)"/><text id="faculty_name-4" data-name="faculty name" class="cls-10" transform="translate(803.38 318.49)"/></g><g id="_13-5" data-name="13"><rect class="cls-1" x="940.29" y="2.96" width="200.75" height="56.96" rx="17"/><path class="cls-2" d="M1124,6a14,14,0,0,1,14,14v23a14,14,0,0,1-14,14H957.29a14,14,0,0,1-14-14V20a14,14,0,0,1,14-14H1124m0-6H957.29a20,20,0,0,0-20,20v23a20,20,0,0,0,20,20H1124a20,20,0,0,0,20-20V20a20,20,0,0,0-20-20Z"/><rect class="cls-3" x="1037.89" y="322.61" width="234.58" height="8"/><path class="cls-3" d="M1272.47,328.05h-25.73a32.72,32.72,0,0,1,7.54-21.21,24,24,0,0,1,18.19-8.79Z"/><path class="cls-3" d="M1041.32,326.61v-30a24,24,0,0,1,18.19,8.79,32.72,32.72,0,0,1,7.53,21.21Z"/><rect class="cls-3" x="907.55" y="193.41" width="267.54" height="6.86" transform="translate(1238.16 -844.48) rotate(90)"/><text id="course_title-5" data-name="course title" class="cls-4" transform="translate(1063.29 109.34)"/><text id="subtitle-5" data-name="subtitle" class="cls-5" transform="translate(1063.49 234.44)"/><text id="course_code-5" data-name="course code" class="cls-9" transform="translate(965.72 42.9)"/><text id="faculty_name-5" data-name="faculty name" class="cls-10" transform="translate(1037.45 356.1)"/></g><g id="_13-6" data-name="13"><rect class="cls-1" x="1174.94" y="601.15" width="200.75" height="56.96" rx="17"/><path class="cls-2" d="M1358.68,604.15a14,14,0,0,1,14,14v23a14,14,0,0,1-14,14H1191.94a14,14,0,0,1-14-14v-23a14,14,0,0,1,14-14h166.74m0-6H1191.94a20,20,0,0,0-20,20v23a20,20,0,0,0,20,20h166.74a20,20,0,0,0,20-20v-23a20,20,0,0,0-20-20Z"/><rect class="cls-3" x="1272.53" y="330.46" width="234.58" height="8"/><path class="cls-3" d="M1507.11,334.46h-25.72a32.7,32.7,0,0,0,7.54,21.22,24,24,0,0,0,18.18,8.78Z"/><path class="cls-3" d="M1276,334.46v30a24,24,0,0,0,18.19-8.78,32.7,32.7,0,0,0,7.54-21.22Z"/><rect class="cls-3" x="1142.19" y="460.8" width="267.54" height="6.86" transform="translate(811.73 1740.2) rotate(-90)"/><text id="course_title-6" data-name="course title" class="cls-4" transform="translate(1299.94 493.84)"/><text id="subtitle-6" data-name="subtitle" class="cls-5" transform="translate(1300.13 444.94)"/><text id="course_code-6" data-name="course code" class="cls-9" transform="translate(1199.87 641.4)"/><text id="faculty_name-6" data-name="faculty name" class="cls-10" transform="translate(1272.67 318.52)"/></g><g id="_13-7" data-name="13"><rect class="cls-1" x="1408.83" y="2.89" width="200.75" height="56.96" rx="17"/><path class="cls-2" d="M1592.57,5.89a14,14,0,0,1,14,14v23a14,14,0,0,1-14,14H1425.83a14,14,0,0,1-14-14v-23a14,14,0,0,1,14-14h166.74m0-6H1425.83a20,20,0,0,0-20,20v23a20,20,0,0,0,20,20h166.74a20,20,0,0,0,20-20v-23a20,20,0,0,0-20-20Z"/><rect class="cls-3" x="1506.42" y="322.54" width="234.58" height="8"/><path class="cls-3" d="M1741,328h-25.72a32.74,32.74,0,0,1,7.53-21.22A24,24,0,0,1,1741,298Z"/><path class="cls-3" d="M1509.85,326.54v-30a24,24,0,0,1,18.19,8.78,32.7,32.7,0,0,1,7.54,21.22Z"/><rect class="cls-3" x="1376.08" y="193.34" width="267.54" height="6.86" transform="translate(1706.62 -1313.09) rotate(90)"/><text id="course_title-7" data-name="course title" class="cls-4" transform="translate(1531.83 109.27)"/><text id="subtitle-7" data-name="subtitle" class="cls-5" transform="translate(1532.02 234.37)"/><text id="course_code-7" data-name="course code" class="cls-9" transform="translate(1434.26 42.83)"/><text id="faculty_name-7" data-name="faculty name" class="cls-10" transform="translate(1505.98 356.03)"/></g><g id="_13-8" data-name="13"><rect class="cls-1" x="1643.47" y="601.08" width="200.75" height="56.96" rx="17"/><path class="cls-2" d="M1827.22,604.08a14,14,0,0,1,14,14v23a14,14,0,0,1-14,14H1660.47a14,14,0,0,1-14-14v-23a14,14,0,0,1,14-14h166.75m0-6H1660.47a20,20,0,0,0-20,20v23a20,20,0,0,0,20,20h166.75a20,20,0,0,0,20-20v-23a20,20,0,0,0-20-20Z"/><rect class="cls-3" x="1741.07" y="330.39" width="234.58" height="8"/><path class="cls-3" d="M1975.65,334.39h-25.72a32.72,32.72,0,0,0,7.53,21.21,24,24,0,0,0,18.19,8.79Z"/><path class="cls-3" d="M1744.5,334.39v30a24,24,0,0,0,18.19-8.79,32.72,32.72,0,0,0,7.53-21.21Z"/><rect class="cls-3" x="1610.73" y="460.73" width="267.54" height="6.86" transform="translate(1280.34 2208.66) rotate(-90)"/><text id="course_title-8" data-name="course title" class="cls-4" transform="translate(1768.47 493.77)"/><text id="subtitle-8" data-name="subtitle" class="cls-5" transform="translate(1768.67 444.87)"/><text id="course_code-8" data-name="course code" class="cls-9" transform="translate(1668.41 641.33)"/><text id="faculty_name-8" data-name="faculty name" class="cls-10" transform="translate(1741.21 318.45)"/></g><g id="_13-9" data-name="13"><rect class="cls-1" x="1878.17" y="3" width="200.75" height="56.96" rx="17"/><path class="cls-2" d="M2061.92,6a14,14,0,0,1,14,14V43a14,14,0,0,1-14,14H1895.17a14,14,0,0,1-14-14V20a14,14,0,0,1,14-14h166.75m0-6H1895.17a20,20,0,0,0-20,20V43a20,20,0,0,0,20,20h166.75a20,20,0,0,0,20-20V20a20,20,0,0,0-20-20Z"/><rect class="cls-3" x="1975.77" y="322.65" width="234.58" height="8"/><path class="cls-3" d="M2210.35,328.09h-25.73a32.75,32.75,0,0,1,7.54-21.22,24,24,0,0,1,18.19-8.78Z"/><path class="cls-3" d="M1979.2,326.65v-30a24,24,0,0,1,18.19,8.78,32.74,32.74,0,0,1,7.53,21.22Z"/><rect class="cls-3" x="1845.43" y="193.45" width="267.54" height="6.86" transform="translate(2176.07 -1782.32) rotate(90)"/><text id="course_title-9" data-name="course title" class="cls-4" transform="translate(2001.17 109.38)"/><text id="subtitle-9" data-name="subtitle" class="cls-5" transform="translate(2001.37 234.48)"/><text id="course_code-9" data-name="course code" class="cls-9" transform="translate(1903.6 42.94)"/><text id="faculty_name-9" data-name="faculty name" class="cls-10" transform="translate(1975.33 356.14)"/></g><g id="_13-10" data-name="13"><rect class="cls-1" x="2112.82" y="601.19" width="200.75" height="56.96" rx="17"/><path class="cls-2" d="M2296.56,604.19a14,14,0,0,1,14,14v23a14,14,0,0,1-14,14H2129.82a14,14,0,0,1-14-14v-23a14,14,0,0,1,14-14h166.74m0-6H2129.82a20,20,0,0,0-20,20v23a20,20,0,0,0,20,20h166.74a20,20,0,0,0,20-20v-23a20,20,0,0,0-20-20Z"/><rect class="cls-3" x="2210.41" y="330.5" width="234.58" height="8"/><path class="cls-3" d="M2445,334.5h-25.72a32.67,32.67,0,0,0,7.54,21.21A24,24,0,0,0,2445,364.5Z"/><path class="cls-3" d="M2213.84,334.5v30a24,24,0,0,0,18.19-8.79,32.67,32.67,0,0,0,7.54-21.21Z"/><rect class="cls-3" x="2080.07" y="460.84" width="267.54" height="6.86" transform="translate(1749.57 2678.11) rotate(-90)"/><text id="course_title-10" data-name="course title" class="cls-4" transform="translate(2237.82 493.88)"/><text id="subtitle-10" data-name="subtitle" class="cls-5" transform="translate(2238.01 444.98)"/><text id="course_code-10" data-name="course code" class="cls-9" transform="translate(2137.75 641.44)"/><text id="faculty_name-10" data-name="faculty name" class="cls-10" transform="translate(2210.55 318.56)"/></g><g id="_13-11" data-name="13"><rect class="cls-1" x="2346.71" y="2.93" width="200.75" height="56.96" rx="17"/><path class="cls-2" d="M2530.45,5.93a14,14,0,0,1,14,14v23a14,14,0,0,1-14,14H2363.71a14,14,0,0,1-14-14v-23a14,14,0,0,1,14-14h166.74m0-6H2363.71a20,20,0,0,0-20,20v23a20,20,0,0,0,20,20h166.74a20,20,0,0,0,20-20v-23a20,20,0,0,0-20-20Z"/><rect class="cls-3" x="2444.3" y="322.57" width="234.58" height="8"/><path class="cls-3" d="M2678.88,328h-25.72a32.72,32.72,0,0,1,7.53-21.21,24.06,24.06,0,0,1,18.19-8.79Z"/><path class="cls-3" d="M2447.73,326.57v-30a24,24,0,0,1,18.19,8.79,32.67,32.67,0,0,1,7.54,21.21Z"/><rect class="cls-3" x="2313.96" y="193.37" width="267.54" height="6.86" transform="translate(2644.54 -2250.93) rotate(90)"/><text id="course_title-11" data-name="course title" class="cls-4" transform="translate(2469.71 109.31)"/><text id="subtitle-11" data-name="subtitle" class="cls-5" transform="translate(2469.9 234.41)"/><text id="course_code-11" data-name="course code" class="cls-9" transform="translate(2372.14 42.87)"/><text id="faculty_name-11" data-name="faculty name" class="cls-10" transform="translate(2443.86 356.07)"/></g><g id="_13-12" data-name="13"><rect class="cls-1" x="2581.35" y="601.11" width="200.75" height="56.96" rx="17"/><path class="cls-2" d="M2765.1,604.11a14,14,0,0,1,14,14v23a14,14,0,0,1-14,14H2598.35a14,14,0,0,1-14-14v-23a14,14,0,0,1,14-14H2765.1m0-6H2598.35a20,20,0,0,0-20,20v23a20,20,0,0,0,20,20H2765.1a20,20,0,0,0,20-20v-23a20,20,0,0,0-20-20Z"/><rect class="cls-3" x="2678.95" y="330.43" width="234.58" height="8"/><path class="cls-3" d="M2913.53,334.43h-25.72a32.72,32.72,0,0,0,7.53,21.21,24,24,0,0,0,18.19,8.79Z"/><path class="cls-3" d="M2682.38,334.43v30a24,24,0,0,0,18.19-8.79,32.72,32.72,0,0,0,7.53-21.21Z"/><rect class="cls-3" x="2548.61" y="460.77" width="267.54" height="6.86" transform="translate(2218.18 3146.58) rotate(-90)"/><text id="course_title-12" data-name="course title" class="cls-4" transform="translate(2706.35 493.81)"/><text id="subtitle-12" data-name="subtitle" class="cls-5" transform="translate(2706.55 444.91)"/><text id="course_code-12" data-name="course code" class="cls-9" transform="translate(2606.29 641.37)"/><text id="faculty_name-12" data-name="faculty name" class="cls-10" transform="translate(2679.09 318.49)"/></g><g id="_13-13" data-name="13"><rect class="cls-1" x="2816" y="2.96" width="200.75" height="56.96" rx="17"/><path class="cls-2" d="M2999.75,6a14,14,0,0,1,14,14v23a14,14,0,0,1-14,14H2833a14,14,0,0,1-14-14V20a14,14,0,0,1,14-14h166.75m0-6H2833a20,20,0,0,0-20,20v23a20,20,0,0,0,20,20h166.75a20,20,0,0,0,20-20V20a20,20,0,0,0-20-20Z"/><rect class="cls-3" x="2913.6" y="322.61" width="234.58" height="8"/><path class="cls-3" d="M3148.18,328.05h-25.73a32.72,32.72,0,0,1,7.54-21.21,24,24,0,0,1,18.19-8.79Z"/><path class="cls-3" d="M2917,326.61v-30a24,24,0,0,1,18.19,8.79,32.72,32.72,0,0,1,7.53,21.21Z"/><rect class="cls-3" x="2783.26" y="193.41" width="267.54" height="6.86" transform="translate(3113.87 -2720.19) rotate(90)"/><text id="course_title-13" data-name="course title" class="cls-4" transform="translate(2939 109.34)"/><text id="subtitle-13" data-name="subtitle" class="cls-5" transform="translate(2939.2 234.44)"/><text id="course_code-13" data-name="course code" class="cls-9" transform="translate(2841.43 42.9)"/><text id="faculty_name-13" data-name="faculty name" class="cls-10" transform="translate(2913.16 356.1)"/></g><g id="_13-14" data-name="13"><rect class="cls-1" x="3050.65" y="601.15" width="200.75" height="56.96" rx="17"/><path class="cls-2" d="M3234.39,604.15a14,14,0,0,1,14,14v23a14,14,0,0,1-14,14H3067.65a14,14,0,0,1-14-14v-23a14,14,0,0,1,14-14h166.74m0-6H3067.65a20,20,0,0,0-20,20v23a20,20,0,0,0,20,20h166.74a20,20,0,0,0,20-20v-23a20,20,0,0,0-20-20Z"/><rect class="cls-3" x="3148.25" y="330.46" width="234.58" height="8"/><path class="cls-3" d="M3382.83,334.46H3357.1a32.7,32.7,0,0,0,7.54,21.22,24,24,0,0,0,18.19,8.78Z"/><path class="cls-3" d="M3151.67,334.46v30a24,24,0,0,0,18.19-8.78,32.7,32.7,0,0,0,7.54-21.22Z"/><rect class="cls-3" x="3017.9" y="460.8" width="267.54" height="6.86" transform="translate(2687.44 3615.91) rotate(-90)"/><text id="course_title-14" data-name="course title" class="cls-4" transform="translate(3175.65 493.84)"/><text id="subtitle-14" data-name="subtitle" class="cls-5" transform="translate(3175.84 444.94)"/><text id="course_code-14" data-name="course code" class="cls-9" transform="translate(3075.58 641.4)"/><text id="faculty_name-14" data-name="faculty name" class="cls-10" transform="translate(3148.38 318.52)"/></g><g id="_13-15" data-name="13"><rect class="cls-1" x="3284.54" y="2.89" width="200.75" height="56.96" rx="17"/><path class="cls-2" d="M3468.28,5.89a14,14,0,0,1,14,14v23a14,14,0,0,1-14,14H3301.54a14,14,0,0,1-14-14v-23a14,14,0,0,1,14-14h166.74m0-6H3301.54a20,20,0,0,0-20,20v23a20,20,0,0,0,20,20h166.74a20,20,0,0,0,20-20v-23a20,20,0,0,0-20-20Z"/><rect class="cls-3" x="3382.13" y="322.54" width="234.58" height="8"/><path class="cls-3" d="M3616.71,328H3591a32.7,32.7,0,0,1,7.54-21.22,24,24,0,0,1,18.18-8.78Z"/><path class="cls-3" d="M3385.56,326.54v-30a24,24,0,0,1,18.19,8.78,32.7,32.7,0,0,1,7.54,21.22Z"/><rect class="cls-3" x="3251.79" y="193.34" width="267.54" height="6.86" transform="translate(3582.33 -3188.8) rotate(90)"/><text id="course_title-15" data-name="course title" class="cls-4" transform="translate(3407.54 109.27)"/><text id="subtitle-15" data-name="subtitle" class="cls-5" transform="translate(3407.73 234.37)"/><text id="course_code-15" data-name="course code" class="cls-9" transform="translate(3309.97 42.83)"/><text id="faculty_name-15" data-name="faculty name" class="cls-10" transform="translate(3381.69 356.03)"/></g></g></svg>