<?xml version="1.0" ?><svg xmlns="http://www.w3.org/2000/svg" id="Layer_1" data-name="Layer 1" viewBox="0 0 3736 661"><defs><style>.cls-4{font-size:38px;font-family:BwModelica-Bold, Bw Modelica;font-weight:700;}.cls-10,.cls-4,.cls-5,.cls-9{fill:#231f20;}.cls-5{font-size:33px;font-family:BwModelica-RegularItalic, Bw Modelica;}.cls-10,.cls-5{font-style:italic;}.cls-6{letter-spacing:-0.03em;}.cls-7{letter-spacing:-0.01em;}.cls-8{letter-spacing:-0.02em;}.cls-9{font-size:30px;font-family:BwModelica-ExtraBold, Bw Modelica;font-weight:800;}.cls-10{font-size:28px;font-family:BwModelica-LightItalic, Bw Modelica;font-weight:300;}</style></defs><g id="_7_courses" data-name="7 courses"><g id="_11" data-name="11"><rect class="cls-1" x="403.91" y="3.21" width="200.75" height="56.96" rx="17"/><path class="cls-2" d="M587.66,6.21a14,14,0,0,1,14,14v23a14,14,0,0,1-14,14H420.91a14,14,0,0,1-14-14v-23a14,14,0,0,1,14-14H587.66m0-6H420.91a20,20,0,0,0-20,20v23a20,20,0,0,0,20,20H587.66a20,20,0,0,0,20-20v-23a20,20,0,0,0-20-20Z"/><rect class="cls-3" x="501.51" y="322.86" width="393.33" height="8"/><path class="cls-3" d="M894.84,327.19H869.12A32.74,32.74,0,0,1,876.65,306a24,24,0,0,1,18.19-8.78Z"/><path class="cls-3" d="M504.94,326.86v-30a24,24,0,0,1,18.19,8.78,32.74,32.74,0,0,1,7.53,21.22Z"/><rect class="cls-3" x="371.17" y="193.66" width="267.54" height="6.86" transform="translate(702.03 -307.85) rotate(90)"/><text id="course_title" data-name="course title" class="cls-4" transform="translate(526.91 109.59)"/><text id="subtitle" class="cls-5" transform="translate(527.11 234.69)"/><text id="course_code" data-name="course code" class="cls-9" transform="translate(429.34 43.15)"/><text id="faculty_name" data-name="faculty name" class="cls-10" transform="translate(501.07 361.03)"/><text id="faculty_name-2" data-name="faculty name" class="cls-10" transform="translate(501.07 396.79)"/></g><g id="_11-2" data-name="11"><rect class="cls-1" x="797.24" y="601.43" width="200.75" height="56.96" rx="17"/><path class="cls-2" d="M981,604.43a14,14,0,0,1,14,14v23a14,14,0,0,1-14,14H814.24a14,14,0,0,1-14-14v-23a14,14,0,0,1,14-14H981m0-6H814.24a20,20,0,0,0-20,20v23a20,20,0,0,0,20,20H981a20,20,0,0,0,20-20v-23a20,20,0,0,0-20-20Z"/><rect class="cls-3" x="894.86" y="330.76" width="393.33" height="8"/><path class="cls-3" d="M1288.19,334.76h-25.72A32.72,32.72,0,0,0,1270,356a24,24,0,0,0,18.19,8.79Z"/><path class="cls-3" d="M898.27,334.75v30A24,24,0,0,0,916.46,356,32.72,32.72,0,0,0,924,334.75Z"/><rect class="cls-3" x="764.52" y="461.1" width="267.54" height="6.86" transform="translate(433.76 1362.82) rotate(-90)"/><text id="course_title-2" data-name="course title" class="cls-4" transform="translate(922.24 494.13)"/><text id="subtitle-2" data-name="subtitle" class="cls-5" transform="translate(922.44 445.23)"/><text id="course_code-2" data-name="course code" class="cls-9" transform="translate(822.17 641.69)"/><text id="faculty_name-3" data-name="faculty name" class="cls-10" transform="translate(894.98 323.48)"/><text id="faculty_name-4" data-name="faculty name" class="cls-10" transform="translate(894.98 287.73)"/></g><g id="_11-3" data-name="11"><rect class="cls-1" x="1190.58" y="3.11" width="200.75" height="56.96" rx="17"/><path class="cls-2" d="M1374.33,6.11a14,14,0,0,1,14,14v23a14,14,0,0,1-14,14H1207.58a14,14,0,0,1-14-14v-23a14,14,0,0,1,14-14h166.75m0-6H1207.58a20,20,0,0,0-20,20v23a20,20,0,0,0,20,20h166.75a20,20,0,0,0,20-20v-23a20,20,0,0,0-20-20Z"/><rect class="cls-3" x="1288.18" y="322.75" width="393.33" height="8"/><path class="cls-3" d="M1681.51,327.08h-25.72a32.74,32.74,0,0,1,7.53-21.21,24.06,24.06,0,0,1,18.19-8.79Z"/><path class="cls-3" d="M1291.61,326.75v-30a24,24,0,0,1,18.19,8.79,32.74,32.74,0,0,1,7.54,21.21Z"/><rect class="cls-3" x="1157.84" y="193.56" width="267.54" height="6.86" transform="translate(1488.6 -1094.63) rotate(90)"/><text id="course_title-3" data-name="course title" class="cls-4" transform="translate(1313.58 109.49)"/><text id="subtitle-3" data-name="subtitle" class="cls-5" transform="translate(1313.78 234.59)"/><text id="course_code-3" data-name="course code" class="cls-9" transform="translate(1216.02 43.05)"/><text id="faculty_name-5" data-name="faculty name" class="cls-10" transform="translate(1287.74 360.93)"/><text id="faculty_name-6" data-name="faculty name" class="cls-10" transform="translate(1287.74 396.69)"/></g><g id="_11-4" data-name="11"><rect class="cls-1" x="1583.92" y="601.33" width="200.75" height="56.96" rx="17"/><path class="cls-2" d="M1767.66,604.33a14,14,0,0,1,14,14v23a14,14,0,0,1-14,14H1600.91a14,14,0,0,1-14-14v-23a14,14,0,0,1,14-14h166.75m0-6H1600.91a20,20,0,0,0-20,20v23a20,20,0,0,0,20,20h166.75a20,20,0,0,0,20-20v-23a20,20,0,0,0-20-20Z"/><rect class="cls-3" x="1681.54" y="330.66" width="393.33" height="8"/><path class="cls-3" d="M2074.87,334.66h-25.73a32.69,32.69,0,0,0,7.54,21.21,24,24,0,0,0,18.19,8.79Z"/><path class="cls-3" d="M1684.94,334.64v30a24,24,0,0,0,18.19-8.78,32.75,32.75,0,0,0,7.54-21.22Z"/><rect class="cls-3" x="1551.2" y="461" width="267.54" height="6.86" transform="translate(1220.54 2149.4) rotate(-90)"/><text id="course_title-4" data-name="course title" class="cls-4" transform="translate(1708.91 494.02)"/><text id="subtitle-4" data-name="subtitle" class="cls-5" transform="translate(1709.11 445.12)"/><text id="course_code-4" data-name="course code" class="cls-9" transform="translate(1608.85 641.58)"/><text id="faculty_name-7" data-name="faculty name" class="cls-10" transform="translate(1681.65 323.38)"/><text id="faculty_name-8" data-name="faculty name" class="cls-10" transform="translate(1681.65 287.62)"/></g><g id="_11-5" data-name="11"><rect class="cls-1" x="1977.29" y="3" width="200.75" height="56.96" rx="17"/><path class="cls-2" d="M2161,6a14,14,0,0,1,14,14V43a14,14,0,0,1-14,14H1994.29a14,14,0,0,1-14-14V20a14,14,0,0,1,14-14H2161m0-6H1994.29a20,20,0,0,0-20,20V43a20,20,0,0,0,20,20H2161a20,20,0,0,0,20-20V20a20,20,0,0,0-20-20Z"/><rect class="cls-3" x="2074.89" y="322.65" width="393.33" height="8"/><path class="cls-3" d="M2468.22,327H2442.5a32.72,32.72,0,0,1,7.53-21.21,24,24,0,0,1,18.19-8.79Z"/><path class="cls-3" d="M2078.32,326.65v-30a24,24,0,0,1,18.19,8.79,32.72,32.72,0,0,1,7.53,21.21Z"/><rect class="cls-3" x="1944.55" y="193.45" width="267.54" height="6.86" transform="translate(2275.2 -1881.44) rotate(90)"/><text id="course_title-5" data-name="course title" class="cls-4" transform="translate(2100.29 109.38)"/><text id="subtitle-5" data-name="subtitle" class="cls-5" transform="translate(2100.49 234.48)"/><text id="course_code-5" data-name="course code" class="cls-9" transform="translate(2002.73 42.94)"/><text id="faculty_name-9" data-name="faculty name" class="cls-10" transform="translate(2074.45 360.82)"/><text id="faculty_name-10" data-name="faculty name" class="cls-10" transform="translate(2074.45 396.58)"/></g><g id="_11-6" data-name="11"><rect class="cls-1" x="2370.62" y="601.23" width="200.75" height="56.96" rx="17"/><path class="cls-2" d="M2554.37,604.23a14,14,0,0,1,14,14v23a14,14,0,0,1-14,14H2387.62a14,14,0,0,1-14-14v-23a14,14,0,0,1,14-14h166.75m0-6H2387.62a20,20,0,0,0-20,20v23a20,20,0,0,0,20,20h166.75a20,20,0,0,0,20-20v-23a20,20,0,0,0-20-20Z"/><rect class="cls-3" x="2468.24" y="330.55" width="393.33" height="8"/><path class="cls-3" d="M2861.57,334.55h-25.72a32.74,32.74,0,0,0,7.53,21.22,24,24,0,0,0,18.19,8.78Z"/><path class="cls-3" d="M2471.65,334.54v30a24,24,0,0,0,18.19-8.79,32.72,32.72,0,0,0,7.53-21.21Z"/><rect class="cls-3" x="2337.9" y="460.9" width="267.54" height="6.86" transform="translate(2007.35 2936) rotate(-90)"/><text id="course_title-6" data-name="course title" class="cls-4" transform="translate(2495.62 493.92)"/><text id="subtitle-6" data-name="subtitle" class="cls-5" transform="translate(2495.82 445.02)"/><text id="course_code-6" data-name="course code" class="cls-9" transform="translate(2395.56 641.48)"/><text id="faculty_name-11" data-name="faculty name" class="cls-10" transform="translate(2468.36 323.28)"/><text id="faculty_name-12" data-name="faculty name" class="cls-10" transform="translate(2468.36 287.52)"/></g><g id="_11-7" data-name="11"><rect class="cls-1" x="2763.97" y="2.9" width="200.75" height="56.96" rx="17"/><path class="cls-2" d="M2947.71,5.9a14,14,0,0,1,14,14v23a14,14,0,0,1-14,14H2781a14,14,0,0,1-14-14v-23a14,14,0,0,1,14-14h166.74m0-6H2781a20,20,0,0,0-20,20v23a20,20,0,0,0,20,20h166.74a20,20,0,0,0,20-20v-23a20,20,0,0,0-20-20Z"/><rect class="cls-3" x="2861.56" y="322.55" width="393.33" height="8"/><path class="cls-3" d="M3254.89,326.88h-25.72a32.72,32.72,0,0,1,7.53-21.21,24,24,0,0,1,18.19-8.79Z"/><path class="cls-3" d="M2865,326.55v-30a24,24,0,0,1,18.19,8.79,32.67,32.67,0,0,1,7.54,21.21Z"/><rect class="cls-3" x="2731.22" y="193.35" width="267.54" height="6.86" transform="translate(3061.77 -2668.22) rotate(90)"/><text id="course_title-7" data-name="course title" class="cls-4" transform="translate(2886.97 109.28)"/><text id="subtitle-7" data-name="subtitle" class="cls-5" transform="translate(2887.16 234.38)"/><text id="course_code-7" data-name="course code" class="cls-9" transform="translate(2789.4 42.84)"/><text id="faculty_name-13" data-name="faculty name" class="cls-10" transform="translate(2861.12 360.72)"/><text id="faculty_name-14" data-name="faculty name" class="cls-10" transform="translate(2861.12 396.48)"/></g></g></svg>