<?xml version="1.0" ?><svg xmlns="http://www.w3.org/2000/svg" id="Layer_1" data-name="Layer 1" viewBox="0 0 3736 661"><defs><style>.cls-4{font-size:38px;font-family:BwModelica-Bold, Bw Modelica;font-weight:700;}.cls-10,.cls-4,.cls-5,.cls-9{fill:#231f20;}.cls-5{font-size:33px;font-family:BwModelica-RegularItalic, Bw Modelica;}.cls-10,.cls-5{font-style:italic;}.cls-6{letter-spacing:-0.03em;}.cls-7{letter-spacing:-0.01em;}.cls-8{letter-spacing:-0.02em;}.cls-9{font-size:30px;font-family:BwModelica-ExtraBold, Bw Modelica;font-weight:800;}.cls-10{font-size:28px;font-family:BwModelica-LightItalic, Bw Modelica;font-weight:300;}</style></defs><g id="_8_courses" data-name="8 courses"><g id="_11" data-name="11"><rect class="cls-1" x="196.56" y="3.01" width="200.75" height="56.96" rx="17"/><path class="cls-2" d="M380.31,6a14,14,0,0,1,14,14V43a14,14,0,0,1-14,14H213.56a14,14,0,0,1-14-14V20a14,14,0,0,1,14-14H380.31m0-6H213.56a20,20,0,0,0-20,20V43a20,20,0,0,0,20,20H380.31a20,20,0,0,0,20-20V20a20,20,0,0,0-20-20Z"/><rect class="cls-3" x="294.16" y="322.66" width="393.33" height="8"/><path class="cls-3" d="M687.49,327H661.77a32.74,32.74,0,0,1,7.53-21.22A24,24,0,0,1,687.49,297Z"/><path class="cls-3" d="M297.59,326.66v-30a24,24,0,0,1,18.19,8.78,32.75,32.75,0,0,1,7.54,21.22Z"/><rect class="cls-3" x="163.82" y="193.46" width="267.54" height="6.86" transform="translate(494.48 -100.71) rotate(90)"/><text id="course_title" data-name="course title" class="cls-4" transform="translate(319.56 109.39)"/><text id="subtitle" class="cls-5" transform="translate(319.76 234.49)"/><text id="course_code" data-name="course code" class="cls-9" transform="translate(222 42.95)"/><text id="faculty_name" data-name="faculty name" class="cls-10" transform="translate(293.72 360.83)"/><text id="faculty_name-2" data-name="faculty name" class="cls-10" transform="translate(293.72 396.59)"/></g><g id="_11-2" data-name="11"><rect class="cls-1" x="589.9" y="601.23" width="200.75" height="56.96" rx="17"/><path class="cls-2" d="M773.64,604.23a14,14,0,0,1,14,14v23a14,14,0,0,1-14,14H606.9a14,14,0,0,1-14-14v-23a14,14,0,0,1,14-14H773.64m0-6H606.9a20,20,0,0,0-20,20v23a20,20,0,0,0,20,20H773.64a20,20,0,0,0,20-20v-23a20,20,0,0,0-20-20Z"/><rect class="cls-3" x="687.52" y="330.56" width="393.33" height="8"/><path class="cls-3" d="M1080.85,334.56h-25.73a32.67,32.67,0,0,0,7.54,21.21,24,24,0,0,0,18.19,8.79Z"/><path class="cls-3" d="M690.92,334.54v30a24,24,0,0,0,18.19-8.78,32.75,32.75,0,0,0,7.54-21.22Z"/><rect class="cls-3" x="557.18" y="460.9" width="267.54" height="6.86" transform="translate(226.61 1155.28) rotate(-90)"/><text id="course_title-2" data-name="course title" class="cls-4" transform="translate(714.9 493.92)"/><text id="subtitle-2" data-name="subtitle" class="cls-5" transform="translate(715.09 445.02)"/><text id="course_code-2" data-name="course code" class="cls-9" transform="translate(614.83 641.49)"/><text id="faculty_name-3" data-name="faculty name" class="cls-10" transform="translate(687.63 323.28)"/><text id="faculty_name-4" data-name="faculty name" class="cls-10" transform="translate(687.63 287.52)"/></g><g id="_11-3" data-name="11"><rect class="cls-1" x="983.24" y="2.91" width="200.75" height="56.96" rx="17"/><path class="cls-2" d="M1167,5.91a14,14,0,0,1,14,14v23a14,14,0,0,1-14,14H1000.24a14,14,0,0,1-14-14v-23a14,14,0,0,1,14-14H1167m0-6H1000.24a20,20,0,0,0-20,20v23a20,20,0,0,0,20,20H1167a20,20,0,0,0,20-20v-23a20,20,0,0,0-20-20Z"/><rect class="cls-3" x="1080.84" y="322.55" width="393.33" height="8"/><path class="cls-3" d="M1474.17,326.88h-25.73a32.72,32.72,0,0,1,7.54-21.21,24,24,0,0,1,18.19-8.79Z"/><path class="cls-3" d="M1084.27,326.55v-30a24.06,24.06,0,0,1,18.19,8.79,32.72,32.72,0,0,1,7.53,21.21Z"/><rect class="cls-3" x="950.5" y="193.35" width="267.54" height="6.86" transform="translate(1281.05 -887.48) rotate(90)"/><text id="course_title-3" data-name="course title" class="cls-4" transform="translate(1106.24 109.29)"/><text id="subtitle-3" data-name="subtitle" class="cls-5" transform="translate(1106.44 234.39)"/><text id="course_code-3" data-name="course code" class="cls-9" transform="translate(1008.67 42.85)"/><text id="faculty_name-5" data-name="faculty name" class="cls-10" transform="translate(1080.4 360.73)"/><text id="faculty_name-6" data-name="faculty name" class="cls-10" transform="translate(1080.4 396.49)"/></g><g id="_11-4" data-name="11"><rect class="cls-1" x="1376.57" y="601.13" width="200.75" height="56.96" rx="17"/><path class="cls-2" d="M1560.32,604.13a14,14,0,0,1,14,14v23a14,14,0,0,1-14,14H1393.57a14,14,0,0,1-14-14v-23a14,14,0,0,1,14-14h166.75m0-6H1393.57a20,20,0,0,0-20,20v23a20,20,0,0,0,20,20h166.75a20,20,0,0,0,20-20v-23a20,20,0,0,0-20-20Z"/><rect class="cls-3" x="1474.19" y="330.45" width="393.33" height="8"/><path class="cls-3" d="M1867.52,334.45H1841.8a32.74,32.74,0,0,0,7.53,21.22,24,24,0,0,0,18.19,8.78Z"/><path class="cls-3" d="M1477.6,334.44v30a24,24,0,0,0,18.19-8.79,32.7,32.7,0,0,0,7.53-21.21Z"/><rect class="cls-3" x="1343.85" y="460.8" width="267.54" height="6.86" transform="translate(1013.39 1941.85) rotate(-90)"/><text id="course_title-4" data-name="course title" class="cls-4" transform="translate(1501.57 493.82)"/><text id="subtitle-4" data-name="subtitle" class="cls-5" transform="translate(1501.77 444.92)"/><text id="course_code-4" data-name="course code" class="cls-9" transform="translate(1401.5 641.38)"/><text id="faculty_name-7" data-name="faculty name" class="cls-10" transform="translate(1474.3 323.18)"/><text id="faculty_name-8" data-name="faculty name" class="cls-10" transform="translate(1474.31 287.42)"/></g><g id="_11-5" data-name="11"><rect class="cls-1" x="1769.95" y="2.8" width="200.75" height="56.96" rx="17"/><path class="cls-2" d="M1953.69,5.8a14,14,0,0,1,14,14v23a14,14,0,0,1-14,14H1787a14,14,0,0,1-14-14v-23a14,14,0,0,1,14-14h166.74m0-6H1787a20,20,0,0,0-20,20v23a20,20,0,0,0,20,20h166.74a20,20,0,0,0,20-20v-23a20,20,0,0,0-20-20Z"/><rect class="cls-3" x="1867.55" y="322.45" width="393.33" height="8"/><path class="cls-3" d="M2260.87,326.78h-25.72a32.67,32.67,0,0,1,7.54-21.21,24,24,0,0,1,18.18-8.79Z"/><path class="cls-3" d="M1871,326.45v-30a24,24,0,0,1,18.19,8.79,32.67,32.67,0,0,1,7.54,21.21Z"/><rect class="cls-3" x="1737.2" y="193.25" width="267.54" height="6.86" transform="translate(2067.66 -1674.29) rotate(90)"/><text id="course_title-5" data-name="course title" class="cls-4" transform="translate(1892.95 109.18)"/><text id="subtitle-5" data-name="subtitle" class="cls-5" transform="translate(1893.14 234.28)"/><text id="course_code-5" data-name="course code" class="cls-9" transform="translate(1795.38 42.74)"/><text id="faculty_name-9" data-name="faculty name" class="cls-10" transform="translate(1867.1 360.62)"/><text id="faculty_name-10" data-name="faculty name" class="cls-10" transform="translate(1867.1 396.38)"/></g><g id="_11-6" data-name="11"><rect class="cls-1" x="2163.28" y="601.03" width="200.75" height="56.96" rx="17"/><path class="cls-2" d="M2347,604a14,14,0,0,1,14,14v23a14,14,0,0,1-14,14H2180.28a14,14,0,0,1-14-14V618a14,14,0,0,1,14-14H2347m0-6H2180.28a20,20,0,0,0-20,20v23a20,20,0,0,0,20,20H2347a20,20,0,0,0,20-20V618a20,20,0,0,0-20-20Z"/><rect class="cls-3" x="2260.9" y="330.35" width="393.33" height="8"/><path class="cls-3" d="M2654.23,334.35H2628.5a32.75,32.75,0,0,0,7.54,21.22,24,24,0,0,0,18.19,8.78Z"/><path class="cls-3" d="M2264.31,334.34v30a24,24,0,0,0,18.18-8.79,32.67,32.67,0,0,0,7.54-21.21Z"/><rect class="cls-3" x="2130.56" y="460.7" width="267.54" height="6.86" transform="translate(1800.2 2728.45) rotate(-90)"/><text id="course_title-6" data-name="course title" class="cls-4" transform="translate(2288.28 493.72)"/><text id="subtitle-6" data-name="subtitle" class="cls-5" transform="translate(2288.47 444.82)"/><text id="course_code-6" data-name="course code" class="cls-9" transform="translate(2188.21 641.28)"/><text id="faculty_name-11" data-name="faculty name" class="cls-10" transform="translate(2261.01 323.08)"/><text id="faculty_name-12" data-name="faculty name" class="cls-10" transform="translate(2261.01 287.32)"/></g><g id="_11-7" data-name="11"><rect class="cls-1" x="2556.62" y="2.7" width="200.75" height="56.96" rx="17"/><path class="cls-2" d="M2740.37,5.7a14,14,0,0,1,14,14v23a14,14,0,0,1-14,14H2573.62a14,14,0,0,1-14-14v-23a14,14,0,0,1,14-14h166.75m0-6H2573.62a20,20,0,0,0-20,20v23a20,20,0,0,0,20,20h166.75a20,20,0,0,0,20-20v-23a20,20,0,0,0-20-20Z"/><rect class="cls-3" x="2654.22" y="322.35" width="393.33" height="8"/><path class="cls-3" d="M3047.55,326.68h-25.72a32.7,32.7,0,0,1,7.53-21.21,24,24,0,0,1,18.19-8.79Z"/><path class="cls-3" d="M2657.65,326.35v-30a24,24,0,0,1,18.19,8.79,32.7,32.7,0,0,1,7.53,21.21Z"/><rect class="cls-3" x="2523.88" y="193.15" width="267.54" height="6.86" transform="translate(2854.23 -2461.07) rotate(90)"/><text id="course_title-7" data-name="course title" class="cls-4" transform="translate(2679.62 109.08)"/><text id="subtitle-7" data-name="subtitle" class="cls-5" transform="translate(2679.82 234.18)"/><text id="course_code-7" data-name="course code" class="cls-9" transform="translate(2582.05 42.64)"/><text id="faculty_name-13" data-name="faculty name" class="cls-10" transform="translate(2653.78 360.52)"/><text id="faculty_name-14" data-name="faculty name" class="cls-10" transform="translate(2653.78 396.28)"/></g><g id="_11-8" data-name="11"><rect class="cls-1" x="2949.95" y="600.92" width="200.75" height="56.96" rx="17"/><path class="cls-2" d="M3133.7,603.92a14,14,0,0,1,14,14v23a14,14,0,0,1-14,14H2967a14,14,0,0,1-14-14v-23a14,14,0,0,1,14-14H3133.7m0-6H2967a20,20,0,0,0-20,20v23a20,20,0,0,0,20,20H3133.7a20,20,0,0,0,20-20v-23a20,20,0,0,0-20-20Z"/><rect class="cls-3" x="3047.57" y="330.25" width="393.33" height="8"/><path class="cls-3" d="M3440.9,334.25h-25.72a32.72,32.72,0,0,0,7.53,21.21,24,24,0,0,0,18.19,8.79Z"/><path class="cls-3" d="M3051,334.24v30a24,24,0,0,0,18.19-8.79,32.72,32.72,0,0,0,7.53-21.21Z"/><rect class="cls-3" x="2917.23" y="460.59" width="267.54" height="6.86" transform="translate(2586.98 3515.02) rotate(-90)"/><text id="course_title-8" data-name="course title" class="cls-4" transform="translate(3074.95 493.62)"/><text id="subtitle-8" data-name="subtitle" class="cls-5" transform="translate(3075.15 444.72)"/><text id="course_code-8" data-name="course code" class="cls-9" transform="translate(2974.88 641.18)"/><text id="faculty_name-15" data-name="faculty name" class="cls-10" transform="translate(3047.69 322.97)"/><text id="faculty_name-16" data-name="faculty name" class="cls-10" transform="translate(3047.69 287.22)"/></g></g></svg>