<?xml version="1.0" ?><svg xmlns="http://www.w3.org/2000/svg" id="Layer_1" data-name="Layer 1" viewBox="0 0 3736 661"><defs><style>.cls-4{font-size:38px;font-family:BwModelica-Bold, Bw Modelica;font-weight:700;}.cls-10,.cls-4,.cls-5,.cls-9{fill:#231f20;}.cls-5{font-size:33px;font-family:BwModelica-RegularItalic, Bw Modelica;}.cls-10,.cls-5{font-style:italic;}.cls-6{letter-spacing:-0.03em;}.cls-7{letter-spacing:-0.01em;}.cls-8{letter-spacing:-0.02em;}.cls-9{font-size:30px;font-family:BwModelica-ExtraBold, Bw Modelica;font-weight:800;}.cls-10{font-size:28px;font-family:BwModelica-LightItalic, Bw Modelica;font-weight:300;}</style></defs><g id="_9_courses" data-name="9 courses"><g id="_11" data-name="11"><rect class="cls-1" x="3" y="3" width="200.75" height="56.96" rx="17"/><path class="cls-2" d="M186.75,6a14,14,0,0,1,14,14V43a14,14,0,0,1-14,14H20A14,14,0,0,1,6,43V20A14,14,0,0,1,20,6H186.75m0-6H20A20,20,0,0,0,0,20V43A20,20,0,0,0,20,63H186.75a20,20,0,0,0,20-20V20a20,20,0,0,0-20-20Z"/><rect class="cls-3" x="100.6" y="322.65" width="393.33" height="8"/><path class="cls-3" d="M493.93,327H468.2a32.75,32.75,0,0,1,7.54-21.22A24,24,0,0,1,493.93,297Z"/><path class="cls-3" d="M104,326.65v-30a24,24,0,0,1,18.19,8.78,32.74,32.74,0,0,1,7.53,21.22Z"/><rect class="cls-3" x="-29.74" y="193.45" width="267.54" height="6.86" transform="translate(300.91 92.85) rotate(90)"/><text id="course_title" data-name="course title" class="cls-4" transform="translate(126 109.38)"/><text id="subtitle" class="cls-5" transform="translate(126.2 234.48)"/><text id="course_code" data-name="course code" class="cls-9" transform="translate(28.43 42.94)"/><text id="faculty_name" data-name="faculty name" class="cls-10" transform="translate(100.16 360.82)"/><text id="faculty_name-2" data-name="faculty name" class="cls-10" transform="translate(100.16 396.58)"/></g><g id="_11-2" data-name="11"><rect class="cls-1" x="396.33" y="601.22" width="200.75" height="56.96" rx="17"/><path class="cls-2" d="M580.08,604.22a14,14,0,0,1,14,14v23a14,14,0,0,1-14,14H413.33a14,14,0,0,1-14-14v-23a14,14,0,0,1,14-14H580.08m0-6H413.33a20,20,0,0,0-20,20v23a20,20,0,0,0,20,20H580.08a20,20,0,0,0,20-20v-23a20,20,0,0,0-20-20Z"/><rect class="cls-3" x="493.95" y="330.55" width="393.33" height="8"/><path class="cls-3" d="M887.28,334.55H861.56a32.72,32.72,0,0,0,7.53,21.21,24,24,0,0,0,18.19,8.79Z"/><path class="cls-3" d="M497.36,334.54v30a24,24,0,0,0,18.19-8.79,32.74,32.74,0,0,0,7.53-21.21Z"/><rect class="cls-3" x="363.61" y="460.89" width="267.54" height="6.86" transform="translate(33.06 961.7) rotate(-90)"/><text id="course_title-2" data-name="course title" class="cls-4" transform="translate(521.33 493.91)"/><text id="subtitle-2" data-name="subtitle" class="cls-5" transform="translate(521.53 445.01)"/><text id="course_code-2" data-name="course code" class="cls-9" transform="translate(421.26 641.47)"/><text id="faculty_name-3" data-name="faculty name" class="cls-10" transform="translate(494.07 323.27)"/><text id="faculty_name-4" data-name="faculty name" class="cls-10" transform="translate(494.07 287.51)"/></g><g id="_11-3" data-name="11"><rect class="cls-1" x="789.67" y="2.9" width="200.75" height="56.96" rx="17"/><path class="cls-2" d="M973.42,5.9a14,14,0,0,1,14,14v23a14,14,0,0,1-14,14H806.67a14,14,0,0,1-14-14v-23a14,14,0,0,1,14-14H973.42m0-6H806.67a20,20,0,0,0-20,20v23a20,20,0,0,0,20,20H973.42a20,20,0,0,0,20-20v-23a20,20,0,0,0-20-20Z"/><rect class="cls-3" x="887.27" y="322.54" width="393.33" height="8"/><path class="cls-3" d="M1280.6,326.87h-25.72a32.74,32.74,0,0,1,7.53-21.21,24,24,0,0,1,18.19-8.79Z"/><path class="cls-3" d="M890.7,326.54v-30a24,24,0,0,1,18.19,8.79,32.74,32.74,0,0,1,7.54,21.21Z"/><rect class="cls-3" x="756.93" y="193.34" width="267.54" height="6.86" transform="translate(1087.48 -693.93) rotate(90)"/><text id="course_title-3" data-name="course title" class="cls-4" transform="translate(912.67 109.28)"/><text id="subtitle-3" data-name="subtitle" class="cls-5" transform="translate(912.87 234.38)"/><text id="course_code-3" data-name="course code" class="cls-9" transform="translate(815.11 42.84)"/><text id="faculty_name-5" data-name="faculty name" class="cls-10" transform="translate(886.83 360.72)"/><text id="faculty_name-6" data-name="faculty name" class="cls-10" transform="translate(886.83 396.48)"/></g><g id="_11-4" data-name="11"><rect class="cls-1" x="1183" y="601.12" width="200.75" height="56.96" rx="17"/><path class="cls-2" d="M1366.75,604.12a14,14,0,0,1,14,14v23a14,14,0,0,1-14,14H1200a14,14,0,0,1-14-14v-23a14,14,0,0,1,14-14h166.75m0-6H1200a20,20,0,0,0-20,20v23a20,20,0,0,0,20,20h166.75a20,20,0,0,0,20-20v-23a20,20,0,0,0-20-20Z"/><rect class="cls-3" x="1280.63" y="330.44" width="393.33" height="8"/><path class="cls-3" d="M1674,334.44h-25.72a32.7,32.7,0,0,0,7.54,21.22,24,24,0,0,0,18.18,8.78Z"/><path class="cls-3" d="M1284,334.43v30a24,24,0,0,0,18.19-8.78,32.75,32.75,0,0,0,7.54-21.22Z"/><rect class="cls-3" x="1150.29" y="460.79" width="267.54" height="6.86" transform="translate(819.84 1748.27) rotate(-90)"/><text id="course_title-4" data-name="course title" class="cls-4" transform="translate(1308 493.81)"/><text id="subtitle-4" data-name="subtitle" class="cls-5" transform="translate(1308.2 444.91)"/><text id="course_code-4" data-name="course code" class="cls-9" transform="translate(1207.94 641.37)"/><text id="faculty_name-7" data-name="faculty name" class="cls-10" transform="translate(1280.74 323.17)"/><text id="faculty_name-8" data-name="faculty name" class="cls-10" transform="translate(1280.74 287.41)"/></g><g id="_11-5" data-name="11"><rect class="cls-1" x="1576.38" y="2.79" width="200.75" height="56.96" rx="17"/><path class="cls-2" d="M1760.13,5.79a14,14,0,0,1,14,14v23a14,14,0,0,1-14,14H1593.38a14,14,0,0,1-14-14v-23a14,14,0,0,1,14-14h166.75m0-6H1593.38a20,20,0,0,0-20,20v23a20,20,0,0,0,20,20h166.75a20,20,0,0,0,20-20v-23a20,20,0,0,0-20-20Z"/><rect class="cls-3" x="1673.98" y="322.44" width="393.33" height="8"/><path class="cls-3" d="M2067.31,326.77h-25.72a32.72,32.72,0,0,1,7.53-21.21,24,24,0,0,1,18.19-8.79Z"/><path class="cls-3" d="M1677.41,326.44v-30a24,24,0,0,1,18.19,8.79,32.72,32.72,0,0,1,7.53,21.21Z"/><rect class="cls-3" x="1543.64" y="193.24" width="267.54" height="6.86" transform="translate(1874.08 -1480.74) rotate(90)"/><text id="course_title-5" data-name="course title" class="cls-4" transform="translate(1699.38 109.17)"/><text id="subtitle-5" data-name="subtitle" class="cls-5" transform="translate(1699.58 234.27)"/><text id="course_code-5" data-name="course code" class="cls-9" transform="translate(1601.82 42.73)"/><text id="faculty_name-9" data-name="faculty name" class="cls-10" transform="translate(1673.54 360.61)"/><text id="faculty_name-10" data-name="faculty name" class="cls-10" transform="translate(1673.54 396.37)"/></g><g id="_11-6" data-name="11"><rect class="cls-1" x="1969.71" y="601.02" width="200.75" height="56.96" rx="17"/><path class="cls-2" d="M2153.46,604a14,14,0,0,1,14,14v23a14,14,0,0,1-14,14H1986.71a14,14,0,0,1-14-14V618a14,14,0,0,1,14-14h166.75m0-6H1986.71a20,20,0,0,0-20,20v23a20,20,0,0,0,20,20h166.75a20,20,0,0,0,20-20V618a20,20,0,0,0-20-20Z"/><rect class="cls-3" x="2067.33" y="330.34" width="393.33" height="8"/><path class="cls-3" d="M2460.66,334.34h-25.72a32.74,32.74,0,0,0,7.53,21.22,24,24,0,0,0,18.19,8.78Z"/><path class="cls-3" d="M2070.74,334.33v30a24,24,0,0,0,18.19-8.79,32.72,32.72,0,0,0,7.53-21.21Z"/><rect class="cls-3" x="1936.99" y="460.69" width="267.54" height="6.86" transform="translate(1606.65 2534.88) rotate(-90)"/><text id="course_title-6" data-name="course title" class="cls-4" transform="translate(2094.71 493.71)"/><text id="subtitle-6" data-name="subtitle" class="cls-5" transform="translate(2094.91 444.81)"/><text id="course_code-6" data-name="course code" class="cls-9" transform="translate(1994.65 641.27)"/><text id="faculty_name-11" data-name="faculty name" class="cls-10" transform="translate(2067.45 323.07)"/><text id="faculty_name-12" data-name="faculty name" class="cls-10" transform="translate(2067.45 287.31)"/></g><g id="_11-7" data-name="11"><rect class="cls-1" x="2363.06" y="2.69" width="200.75" height="56.96" rx="17"/><path class="cls-2" d="M2546.8,5.69a14,14,0,0,1,14,14v23a14,14,0,0,1-14,14H2380.06a14,14,0,0,1-14-14v-23a14,14,0,0,1,14-14H2546.8m0-6H2380.06a20,20,0,0,0-20,20v23a20,20,0,0,0,20,20H2546.8a20,20,0,0,0,20-20v-23a20,20,0,0,0-20-20Z"/><rect class="cls-3" x="2460.65" y="322.34" width="393.33" height="8"/><path class="cls-3" d="M2854,326.67h-25.72a32.72,32.72,0,0,1,7.53-21.21,24,24,0,0,1,18.19-8.79Z"/><path class="cls-3" d="M2464.08,326.34v-30a24,24,0,0,1,18.19,8.79,32.67,32.67,0,0,1,7.54,21.21Z"/><rect class="cls-3" x="2330.31" y="193.14" width="267.54" height="6.86" transform="translate(2660.65 -2267.52) rotate(90)"/><text id="course_title-7" data-name="course title" class="cls-4" transform="translate(2486.06 109.07)"/><text id="subtitle-7" data-name="subtitle" class="cls-5" transform="translate(2486.25 234.17)"/><text id="course_code-7" data-name="course code" class="cls-9" transform="translate(2388.49 42.63)"/><text id="faculty_name-13" data-name="faculty name" class="cls-10" transform="translate(2460.21 360.51)"/><text id="faculty_name-14" data-name="faculty name" class="cls-10" transform="translate(2460.21 396.27)"/></g><g id="_11-8" data-name="11"><rect class="cls-1" x="3149.78" y="2.82" width="200.75" height="56.96" rx="17"/><path class="cls-2" d="M3333.52,5.82a14,14,0,0,1,14,14v23a14,14,0,0,1-14,14H3166.78a14,14,0,0,1-14-14v-23a14,14,0,0,1,14-14h166.74m0-6H3166.78a20,20,0,0,0-20,20v23a20,20,0,0,0,20,20h166.74a20,20,0,0,0,20-20v-23a20,20,0,0,0-20-20Z"/><rect class="cls-3" x="3247.37" y="322.47" width="393.33" height="8"/><path class="cls-3" d="M3640.7,326.8H3615a32.74,32.74,0,0,1,7.53-21.22,24,24,0,0,1,18.19-8.78Z"/><path class="cls-3" d="M3250.8,326.47v-30a24,24,0,0,1,18.19,8.78,32.7,32.7,0,0,1,7.54,21.22Z"/><rect class="cls-3" x="3117.03" y="193.27" width="267.54" height="6.86" transform="translate(3447.5 -3054.11) rotate(90)"/><text id="course_title-8" data-name="course title" class="cls-4" transform="translate(3272.78 109.2)"/><text id="subtitle-8" data-name="subtitle" class="cls-5" transform="translate(3272.97 234.3)"/><text id="course_code-8" data-name="course code" class="cls-9" transform="translate(3175.21 42.76)"/><text id="faculty_name-15" data-name="faculty name" class="cls-10" transform="translate(3246.93 360.64)"/><text id="faculty_name-16" data-name="faculty name" class="cls-10" transform="translate(3246.93 396.4)"/></g><g id="_11-9" data-name="11"><rect class="cls-1" x="2756.39" y="600.91" width="200.75" height="56.96" rx="17"/><path class="cls-2" d="M2940.13,603.91a14,14,0,0,1,14,14v23a14,14,0,0,1-14,14H2773.39a14,14,0,0,1-14-14v-23a14,14,0,0,1,14-14h166.74m0-6H2773.39a20,20,0,0,0-20,20v23a20,20,0,0,0,20,20h166.74a20,20,0,0,0,20-20v-23a20,20,0,0,0-20-20Z"/><rect class="cls-3" x="2854.01" y="330.24" width="393.33" height="8"/><path class="cls-3" d="M3247.34,334.24h-25.73a32.67,32.67,0,0,0,7.54,21.21,24,24,0,0,0,18.19,8.79Z"/><path class="cls-3" d="M2857.41,334.23v30a24,24,0,0,0,18.19-8.79,32.67,32.67,0,0,0,7.54-21.21Z"/><rect class="cls-3" x="2723.67" y="460.58" width="267.54" height="6.86" transform="translate(2393.42 3321.45) rotate(-90)"/><text id="course_title-9" data-name="course title" class="cls-4" transform="translate(2881.39 493.61)"/><text id="subtitle-9" data-name="subtitle" class="cls-5" transform="translate(2881.58 444.71)"/><text id="course_code-9" data-name="course code" class="cls-9" transform="translate(2781.32 641.17)"/><text id="faculty_name-17" data-name="faculty name" class="cls-10" transform="translate(2854.12 322.96)"/><text id="faculty_name-18" data-name="faculty name" class="cls-10" transform="translate(2854.12 287.21)"/></g></g></svg>